<svg xmlns="http://www.w3.org/2000/svg" viewBox="0 0 73.21 100">
  <title>Ricardo Balk</title>
  <path class="a"
    d="M62,74.66l-5.3-13.74q-2.23-5.84-4.85-7.9T43.91,51H33V96.28H19.13V5.2h28.6a57.11,57.11,0,0,1,11.3,1,26.86,26.86,0,0,1,8.63,3.35,14.75,14.75,0,0,1,5.83,6.76,26.54,26.54,0,0,1,2,10.81,18.84,18.84,0,0,1-4,11.84c-2.65,3.43-5.25,5.65-11.7,7.57C65.69,50,67.75,52.68,70,58.3l6.63,16.19,5,12.64a26.37,26.37,0,0,0,2.76-4.68,25.49,25.49,0,0,0,2.27-10.68A27.51,27.51,0,0,0,82.14,56q-4.45-6.63-13.39-9Q82,40.46,82,25.62a26.38,26.38,0,0,0-1.41-8.9A21.06,21.06,0,0,0,77,10.13a20.51,20.51,0,0,0-5.67-4.57,36.38,36.38,0,0,0-6.8-3A45.86,45.86,0,0,0,56.7.93Q52.26.35,48.83.17C46.54.06,44,0,41.07,0H13.39V100H49.86a53.28,53.28,0,0,0,16.25-2.3,40.68,40.68,0,0,0,4-1.54Z"
    transform="translate(-13.39)" fill="currentColor" />
  <path class="a"
    d="M57.75,19.28q-3.11-2.21-10.24-2.2H32.8V39.24H46q14.81,0,14.81-11.49C60.85,23.58,59.82,20.75,57.75,19.28Z"
    transform="translate(-13.39)" fill="currentColor" />
</svg>