<svg xmlns="http://www.w3.org/2000/svg" xmlns:xlink="http://www.w3.org/1999/xlink" viewBox="0 0 1571.33 666.51"><defs><style>.a{fill:#fff;}.b{fill:none;stroke:#fff;stroke-miterlimit:10;}</style></defs><title>hero</title><path class="a" d="M119-176.51C4.39-176.51-88.51-83.61-88.51,31S4.39,238.5,119,238.5,326.5,145.6,326.5,31,233.6-176.51,119-176.51ZM119,163A132,132,0,1,1,251,31,132,132,0,0,1,119,163Z" transform="translate(88.51 176.51)"/><path class="a" d="M530.9,433H492.36a9.23,9.23,0,0,0-9.23,9.23v38.54a9.23,9.23,0,0,0,9.23,9.23H530.9a9.23,9.23,0,0,0,9.23-9.23V442.23A9.23,9.23,0,0,0,530.9,433Zm1.1,39.64a9.23,9.23,0,0,1-9.23,9.23H500.49a9.23,9.23,0,0,1-9.23-9.23V450.36a9.23,9.23,0,0,1,9.23-9.23h22.28a9.23,9.23,0,0,1,9.23,9.23Z" transform="translate(88.51 176.51)"/><image width="538" height="539" transform="translate(852.43 492.83) scale(0.24)" xlink:href="hero1.png"/><path class="a" d="M1176.82,141.54h-71a17,17,0,0,0-17,17v71a17,17,0,0,0,17,17h71a17,17,0,0,0,17-17v-71A17,17,0,0,0,1176.82,141.54Zm2,73a17,17,0,0,1-17,17h-41a17,17,0,0,1-17-17v-41a17,17,0,0,1,17-17h41a17,17,0,0,1,17,17Z" transform="translate(88.51 176.51)"/><path class="a" d="M1472.87,291.5h-41.59a10,10,0,0,0-10,10V343a10,10,0,0,0,10,10h41.59a10,10,0,0,0,10-10V301.46A10,10,0,0,0,1472.87,291.5Zm1.18,42.77a10,10,0,0,1-10,10h-24a10,10,0,0,1-10-10v-24a10,10,0,0,1,10-10h24a10,10,0,0,1,10,10Z" transform="translate(88.51 176.51)"/><line class="b" x1="1274.33" y1="384.05" x2="1508.33" y2="494.57"/><line class="b" x1="368.12" y1="301.11" x2="888.51" y2="563.6"/></svg>