<?xml version="1.0" encoding="UTF-8" standalone="no"?>
<svg
   xmlns:dc="http://purl.org/dc/elements/1.1/"
   xmlns:cc="http://creativecommons.org/ns#"
   xmlns:rdf="http://www.w3.org/1999/02/22-rdf-syntax-ns#"
   xmlns:svg="http://www.w3.org/2000/svg"
   xmlns="http://www.w3.org/2000/svg"
   viewBox="0 0 2133.3333 400"
   height="400"
   width="2133.3333"
   xml:space="preserve"
   id="svg2"
   version="1.1"><metadata
     id="metadata8"><rdf:RDF><cc:Work
         rdf:about=""><dc:format>image/svg+xml</dc:format><dc:type
           rdf:resource="http://purl.org/dc/dcmitype/StillImage" /><dc:title></dc:title></cc:Work></rdf:RDF></metadata><defs
     id="defs6"><clipPath
       id="clipPath18"
       clipPathUnits="userSpaceOnUse"><path
         id="path16"
         d="M 0,300 H 1600 V 0 H 0 Z" /></clipPath><clipPath
       id="clipPath26"
       clipPathUnits="userSpaceOnUse"><path
         id="path24"
         d="M 388.286,150 H 1600 V 0 H 388.286 Z" /></clipPath><clipPath
       id="clipPath42"
       clipPathUnits="userSpaceOnUse"><path
         id="path40"
         d="M 518.633,114.844 H 1600 V 1.52545 H 518.633 Z" /></clipPath></defs><g
     transform="matrix(1.3333333,0,0,-1.3333333,0,400)"
     id="g10"><g
       id="g12"><g
         clip-path="url(#clipPath18)"
         id="g14"><g
           id="g20"><g
             id="g22" /><g
             id="g34"><g
               style="opacity:0.44999701"
               id="g32"
               clip-path="url(#clipPath26)"><g
                 id="g30"
                 transform="translate(388.2856)"><path
                   id="path28"
                   style="fill:#ffffff;fill-opacity:1;fill-rule:nonzero;stroke:none"
                   d="M 0,0 C 0,0 49.874,0.225 130.347,1.525 359.645,6.508 845.55,27.462 1211.714,114.844 V 150 C 710.092,7.414 0,0 0,0" /></g></g></g></g><g
           id="g36"><g
             id="g38" /><g
             id="g50"><g
               style="opacity:0.63999897"
               id="g48"
               clip-path="url(#clipPath42)"><g
                 id="g46"
                 transform="translate(1600,75)"><path
                   id="path44"
                   style="fill:#ffffff;fill-opacity:1;fill-rule:nonzero;stroke:none"
                   d="M 0,0 V 39.844 C -366.164,-47.538 -852.07,-68.492 -1081.367,-73.475 -823.775,-69.312 -252.644,-54.125 0,0" /></g></g></g></g><g
           transform="translate(402.9438)"
           id="g52"><path
             id="path54"
             style="fill:#ffffff;fill-opacity:1;fill-rule:nonzero;stroke:none"
             d="m 0,0 h -14.658 c 0,0 5.076,-0.02 14.658,0" /></g><g
           transform="translate(388.2856)"
           id="g56"><path
             id="path58"
             style="fill:#fff498;fill-opacity:1;fill-rule:nonzero;stroke:none"
             d="M 0,0 H 14.658 C 34.878,0.042 75.183,0.259 130.347,1.209 49.874,0.178 0,0 0,0" /></g><g
           transform="translate(402.9438)"
           id="g60"><path
             id="path62"
             style="fill:#ffffff;fill-opacity:1;fill-rule:nonzero;stroke:none"
             d="M 0,0 H 1197.056 V 75 C 944.413,20.875 373.281,5.688 115.689,1.525 60.525,0.327 20.22,0.053 0,0" /></g></g></g></g></svg>