<?xml version="1.0" encoding="utf-8"?>
<!-- Generator: Adobe Illustrator 22.0.1, SVG Export Plug-In . SVG Version: 6.00 Build 0)  -->
<svg version="1.1" xmlns="http://www.w3.org/2000/svg" xmlns:xlink="http://www.w3.org/1999/xlink" x="0px" y="0px"
	 viewBox="0 0 1398.9 480" enable-background="new 0 0 1398.9 480" xml:space="preserve">
<g id="Layer_2">
	<linearGradient id="SVGID_1_" gradientUnits="userSpaceOnUse" x1="-1.8274" y1="45.4337" x2="1398.1726" y2="45.4337">
		<stop  offset="0" style="stop-color:#FF8700"/>
		<stop  offset="7.390410e-03" style="stop-color:#FF8A01"/>
		<stop  offset="7.265605e-02" style="stop-color:#FEA506"/>
		<stop  offset="0.1394" style="stop-color:#FDB809"/>
		<stop  offset="0.2079" style="stop-color:#FDC30B"/>
		<stop  offset="0.2809" style="stop-color:#FDC70C"/>
		<stop  offset="0.6685" style="stop-color:#F3903F"/>
		<stop  offset="0.8876" style="stop-color:#ED683C"/>
		<stop  offset="1" style="stop-color:#E93E3A"/>
	</linearGradient>
	<rect x="-1.8" y="-467.1" fill="url(#SVGID_1_)" width="1400" height="1025"/>
</g>
<g id="Layer_1">
	<g>
		<defs>
			<rect id="SVGID_2_" x="-1.8" y="-467.1" width="1400" height="1025"/>
		</defs>
		<clipPath id="SVGID_3_">
			<use xlink:href="#SVGID_2_"  overflow="visible"/>
		</clipPath>
		<g clip-path="url(#SVGID_3_)">
			<g>
				
					<rect x="-102.3" y="4.8" transform="matrix(0.4197 -0.9077 0.9077 0.4197 -78.7993 206.2671)" fill="#FFFFFF" width="448.5" height="320"/>
				<polygon fill="#58595B" points="296,104.5 57.1,-6 57.6,-7.1 296.5,103.4 				"/>
				<polygon fill="#58595B" points="291.1,115 52.2,4.5 52.7,3.4 291.7,113.9 				"/>
				<polygon fill="#58595B" points="286.5,125.1 47.5,14.6 48.1,13.5 287,123.9 				"/>
				<polygon fill="#58595B" points="281.6,135.5 42.7,25.1 43.2,23.9 282.2,134.4 				"/>
				
					<rect x="157" y="-41.5" transform="matrix(0.4196 -0.9077 0.9077 0.4196 9.6635 195.3802)" fill="#58595B" width="1.2" height="263.2"/>
				
					<rect x="152.1" y="-31" transform="matrix(0.4196 -0.9077 0.9077 0.4196 -2.6696 197.0684)" fill="#58595B" width="1.3" height="263.2"/>
				
					<rect x="147.2" y="-20.2" transform="matrix(0.4197 -0.9077 0.9077 0.4197 -15.3868 198.8)" fill="#58595B" width="1.2" height="263.2"/>
				
					<rect x="142.3" y="-9.7" transform="matrix(0.4197 -0.9077 0.9077 0.4197 -27.7169 200.4873)" fill="#58595B" width="1.2" height="263.2"/>
				<polygon fill="#58595B" points="257.1,188.6 18.2,78.2 18.7,77 257.6,187.5 				"/>
				<polygon fill="#58595B" points="252.2,199.1 13.3,88.7 13.8,87.5 252.8,198 				"/>
				
					<rect x="127.4" y="22.6" transform="matrix(0.4197 -0.9077 0.9077 0.4197 -65.6387 205.6711)" fill="#58595B" width="1.2" height="263.2"/>
				<polygon fill="#58595B" points="242.4,220.5 3.4,110 4,108.9 242.9,219.3 				"/>
				
					<rect x="60.2" y="84" transform="matrix(0.4197 -0.9077 0.9077 0.4197 -105.4062 145.138)" fill="#58595B" width="1.2" height="141.9"/>
				
					<rect x="55.7" y="93.7" transform="matrix(0.4197 -0.9077 0.9077 0.4197 -116.764 146.6911)" fill="#58595B" width="1.2" height="141.9"/>
				<polygon fill="#58595B" points="116.3,203.9 -12.5,144.4 -11.9,143.2 116.9,202.8 				"/>
				<polygon fill="#58595B" points="111.9,213.6 -16.9,154 -16.4,152.9 112.4,212.4 				"/>
				
					<rect x="42.3" y="122.7" transform="matrix(0.4197 -0.9077 0.9077 0.4197 -150.849 151.3488)" fill="#58595B" width="1.2" height="141.9"/>
				
					<rect x="37.8" y="132.4" transform="matrix(0.4197 -0.9077 0.9077 0.4197 -162.206 152.8979)" fill="#58595B" width="1.2" height="141.9"/>
				
					<rect x="33.7" y="141.3" transform="matrix(0.4196 -0.9077 0.9077 0.4196 -172.6951 154.342)" fill="#58595B" width="1.2" height="141.9"/>
				<polygon fill="#58595B" points="94,252.2 -34.8,192.7 -34.3,191.5 94.5,251.1 				"/>
				<polygon fill="#58595B" points="89.5,262 -39.3,202.5 -38.8,201.3 90,260.9 				"/>
				<polygon fill="#58595B" points="85,271.7 -43.8,212.1 -43.3,211 85.5,270.5 				"/>
				<polygon fill="#58595B" points="80.9,280.6 -47.9,221 -47.4,219.9 81.4,279.5 				"/>
				
					<rect x="11.7" y="189" transform="matrix(0.4197 -0.9077 0.9077 0.4197 -228.7775 161.9935)" fill="#58595B" width="1.2" height="141.9"/>
				
					<rect x="7.2" y="198.6" transform="matrix(0.4197 -0.9077 0.9077 0.4197 -240.0799 163.5373)" fill="#58595B" width="1.2" height="141.9"/>
				<polygon fill="#58595B" points="67.9,308.8 -60.9,249.2 -60.4,248.1 68.4,307.6 				"/>
				
					<rect x="-1.4" y="217.1" transform="matrix(0.4197 -0.9077 0.9077 0.4197 -261.9264 166.5274)" fill="#58595B" width="1.2" height="141.9"/>
				<polygon fill="#58595B" points="58.9,328.1 -69.8,268.5 -69.3,267.4 59.5,326.9 				"/>
				
					<rect x="-10.3" y="236.4" transform="matrix(0.4196 -0.9077 0.9077 0.4196 -284.6102 169.6282)" fill="#58595B" width="1.3" height="141.9"/>
				
					<rect x="73.8" y="244.6" transform="matrix(0.4197 -0.9077 0.9077 0.4197 -173.8785 312.0158)" fill="#58595B" width="166.6" height="94.8"/>
				
					<rect x="193.8" y="-137.2" transform="matrix(0.4197 -0.9077 0.9077 0.4197 122.2264 179.9977)" fill="#58595B" width="16.1" height="263.2"/>
				
					<rect x="214.9" y="-62.8" transform="matrix(0.4197 -0.9077 0.9077 0.4197 99.1252 221.7279)" fill="#58595B" width="16.1" height="192.3"/>
			</g>
			<g>
				
					<rect x="54.8" y="113.5" transform="matrix(0.9932 -0.1165 0.1165 0.9932 -37.8964 27.3399)" fill="#FFFFFF" width="320" height="448.5"/>
				<polygon fill="#58595B" points="331.8,195.4 70.3,226 70.2,224.8 331.6,194.1 				"/>
				<polygon fill="#58595B" points="333.1,206.8 71.7,237.5 71.5,236.3 333,205.6 				"/>
				<polygon fill="#58595B" points="334.4,217.9 73,248.6 72.8,247.3 334.3,216.6 				"/>
				<polygon fill="#58595B" points="335.7,229.3 74.3,260 74.2,258.8 335.6,228.1 				"/>
				
					<rect x="74.7" y="254.8" transform="matrix(0.9932 -0.1166 0.1166 0.9932 -28.367 25.7858)" fill="#58595B" width="263.2" height="1.2"/>
				
					<rect x="76" y="266.3" transform="matrix(0.9932 -0.1166 0.1166 0.9932 -29.6956 26.0215)" fill="#58595B" width="263.2" height="1.3"/>
				
					<rect x="77.4" y="278.1" transform="matrix(0.9932 -0.1165 0.1165 0.9932 -31.0603 26.259)" fill="#58595B" width="263.2" height="1.2"/>
				
					<rect x="78.8" y="289.6" transform="matrix(0.9932 -0.1166 0.1166 0.9932 -32.391 26.4967)" fill="#58595B" width="263.2" height="1.2"/>
				<polygon fill="#58595B" points="342.6,287.4 81.1,318.1 81,316.9 342.4,286.2 				"/>
				<polygon fill="#58595B" points="343.9,298.9 82.5,329.6 82.3,328.4 343.8,297.7 				"/>
				
					<rect x="82.9" y="324.9" transform="matrix(0.9932 -0.1166 0.1166 0.9932 -36.4768 27.2213)" fill="#58595B" width="263.2" height="1.2"/>
				<polygon fill="#58595B" points="346.6,322.3 85.2,352.9 85.1,351.7 346.5,321 				"/>
				
					<rect x="86.7" y="360.7" transform="matrix(0.9932 -0.1165 0.1165 0.9932 -41.0365 20.8334)" fill="#58595B" width="141.9" height="1.2"/>
				
					<rect x="87.9" y="371.3" transform="matrix(0.9932 -0.1166 0.1166 0.9932 -42.2655 21.0531)" fill="#58595B" width="141.9" height="1.2"/>
				<polygon fill="#58595B" points="230.6,374 89.6,390.5 89.5,389.3 230.4,372.8 				"/>
				<polygon fill="#58595B" points="231.8,384.6 90.9,401.1 90.7,399.9 231.7,383.3 				"/>
				
					<rect x="91.7" y="403" transform="matrix(0.9932 -0.1165 0.1165 0.9932 -45.9321 21.7008)" fill="#58595B" width="141.9" height="1.2"/>
				
					<rect x="92.9" y="413.6" transform="matrix(0.9932 -0.1165 0.1165 0.9932 -47.1485 21.9138)" fill="#58595B" width="141.9" height="1.2"/>
				
					<rect x="94" y="423.3" transform="matrix(0.9932 -0.1166 0.1166 0.9932 -48.2982 22.1247)" fill="#58595B" width="141.9" height="1.2"/>
				<polygon fill="#58595B" points="236.8,426.9 95.8,443.4 95.7,442.2 236.6,425.6 				"/>
				<polygon fill="#58595B" points="238,437.6 97.1,454.1 96.9,452.9 237.9,436.3 				"/>
				<polygon fill="#58595B" points="239.3,448.2 98.3,464.7 98.2,463.5 239.1,446.9 				"/>
				<polygon fill="#58595B" points="240.4,457.9 99.5,474.4 99.3,473.2 240.3,456.7 				"/>
				
					<rect x="100.2" y="475.5" transform="matrix(0.9932 -0.1165 0.1165 0.9932 -54.3195 23.184)" fill="#58595B" width="141.9" height="1.2"/>
				
					<rect x="101.4" y="486" transform="matrix(0.9932 -0.1165 0.1165 0.9932 -55.5376 23.3999)" fill="#58595B" width="141.9" height="1.2"/>
				<polygon fill="#58595B" points="244,488.8 103.1,505.3 103,504 243.9,487.5 				"/>
				
					<rect x="103.8" y="506.3" transform="matrix(0.9932 -0.1166 0.1166 0.9932 -57.8998 23.8211)" fill="#58595B" width="141.9" height="1.2"/>
				<polygon fill="#58595B" points="246.5,509.9 105.6,526.4 105.4,525.2 246.4,508.6 				"/>
				
					<rect x="106.3" y="527.4" transform="matrix(0.9932 -0.1166 0.1166 0.9932 -60.3485 24.2561)" fill="#58595B" width="141.9" height="1.3"/>
				
					<rect x="263.9" y="344.5" transform="matrix(0.9932 -0.1165 0.1165 0.9932 -47.7309 39.1891)" fill="#58595B" width="94.8" height="166.6"/>
				
					<rect x="62.4" y="142.7" transform="matrix(0.9932 -0.1165 0.1165 0.9932 -16.2407 23.6356)" fill="#58595B" width="263.2" height="16.1"/>
				
					<rect x="136.2" y="164.8" transform="matrix(0.9932 -0.1165 0.1165 0.9932 -18.5643 28.2535)" fill="#58595B" width="192.3" height="16.1"/>
			</g>
			<g>
				<path fill="#F75F2D" d="M930.3-138.8H489.7c-20.9,0-37.9,17-37.9,37.9v292.4c0,34,1.8,68.1,5.3,101.9l9.9,95
					c4.3,41.6,39.4,73.1,81.2,73.1h323.6c41.8,0,76.8-31.6,81.2-73.1l9.9-95c3.5-33.9,5.3-67.9,5.3-101.9v-292.4
					C968.2-121.8,951.2-138.8,930.3-138.8z"/>
				<path fill="#E6E7E8" d="M851.3,161.9L752,111.3V94h-42c12.2,0,22.2,9.9,22.2,22.2c0,12.2-9.9,22.2-22.2,22.2
					c-12.2,0-22.2-9.9-22.2-22.2c0-12.2,9.9-22.2,22.2-22.2h-42v17.3l-99.3,50.6l-1.8,2.3c0,0,22.6,79.2,143.1,79.2
					s143.1-79.2,143.1-79.2L851.3,161.9z"/>
				<path fill="#414042" d="M954.6,69.1H465.4c-7.5,0-13.6-6.1-13.6-13.6V23.2c0-7.5,6.1-13.6,13.6-13.6h489.1
					c7.5,0,13.6,6.1,13.6,13.6v32.3C968.2,63,962.1,69.1,954.6,69.1z"/>
				<path fill="#FFFFFF" d="M473.2,9.6h-7.8c-7.5,0-13.6,6.1-13.6,13.6v32.3c0,7.5,6.1,13.6,13.6,13.6h7.8V9.6z"/>
				<path fill="#FFFFFF" d="M946.8,69.1h7.8c7.5,0,13.6-6.1,13.6-13.6V23.2c0-7.5-6.1-13.6-13.6-13.6h-7.8V69.1z"/>
				<path fill="#FFFFFF" d="M386-57.6c-4.8,0-8.6,3.9-8.6,8.6v15.5v53.2c0,12.6-4.6,24.8-12.9,34.3l-3.6,4.1
					c-1.4,2.2-2.2,4.9-2.2,7.5v0c0,7.8,6.3,14,14,14h4.6c9.4,0,17-7.6,17-17v-96.1h37c2.5,0,5-1,6.8-2.7l7.1-6.7
					c1.9-1.7,4.3-2.7,6.8-2.7h13.5v-12.1H386z"/>
				<rect x="426.2" y="30.2" fill="#414042" width="25.6" height="16.5"/>
				<path fill="#F75F2D" d="M429.4,56.6h-11.9c-8.2,0-14.9-6.7-14.9-14.9V37c0-8.2,6.7-14.9,14.9-14.9h11.9V56.6z"/>
				<rect x="968.2" y="32" fill="#414042" width="25.6" height="16.5"/>
				<path fill="#F75F2D" d="M990.6,22.1h11.9c8.2,0,14.9,6.7,14.9,14.9v4.7c0,8.2-6.7,14.9-14.9,14.9h-11.9V22.1z"/>
				<path fill="#FFFFFF" d="M1011-67.1l-0.8,0.6c-6.8,5.4-15.2,8.3-23.9,8.3h-31.9V-43h42.2h29.6l0,0c6.4,0,11.5-5.2,11.5-11.5v-6.2
					c0-6.4-5.2-11.5-11.5-11.5l0,0C1020.6-72.4,1015.3-70.5,1011-67.1z"/>
				<path fill="#EFEFEF" d="M950.5-299.1L950.5-299.1c-32,0-57.9,25.9-57.9,57.9v87.4h115.9v-87.4
					C1008.4-273.2,982.5-299.1,950.5-299.1z"/>
				<g>
					<path fill="#414042" d="M491.4,294.6L491.4,294.6c0,35.8,7.1,71.3,20.8,104.4l3.3,8c6,14.5,20.2,24,35.9,24h317.8
						c15.7,0,29.9-9.5,35.9-24l3.3-8c13.7-33.1,20.8-68.6,20.8-104.4v0c0-9.1-7.4-16.4-16.4-16.4H507.9
						C498.8,278.2,491.4,285.5,491.4,294.6z"/>
					<g>
						<path fill="#FFFFFF" d="M516.6,318.8h-4.3c-5.1,0-9.3-4.2-9.3-9.3v-4.3c0-5.1,4.2-9.3,9.3-9.3h4.3c5.1,0,9.3,4.2,9.3,9.3v4.3
							C525.9,314.6,521.7,318.8,516.6,318.8z"/>
						<path fill="#FFFFFF" d="M549.3,318.8H545c-5.1,0-9.3-4.2-9.3-9.3v-4.3c0-5.1,4.2-9.3,9.3-9.3h4.3c5.1,0,9.3,4.2,9.3,9.3v4.3
							C558.6,314.6,554.4,318.8,549.3,318.8z"/>
						<path fill="#FFFFFF" d="M532.9,350.3h-4.3c-5.1,0-9.3-4.2-9.3-9.3v-4.3c0-5.1,4.2-9.3,9.3-9.3h4.3c5.1,0,9.3,4.2,9.3,9.3v4.3
							C542.2,346.1,538.1,350.3,532.9,350.3z"/>
						<path fill="#FFFFFF" d="M565.6,350.3h-4.3c-5.1,0-9.3-4.2-9.3-9.3v-4.3c0-5.1,4.2-9.3,9.3-9.3h4.3c5.1,0,9.3,4.2,9.3,9.3v4.3
							C574.9,346.1,570.7,350.3,565.6,350.3z"/>
						<path fill="#FFFFFF" d="M549.3,381.8H545c-5.1,0-9.3-4.2-9.3-9.3v-4.3c0-5.1,4.2-9.3,9.3-9.3h4.3c5.1,0,9.3,4.2,9.3,9.3v4.3
							C558.6,377.7,554.4,381.8,549.3,381.8z"/>
						<path fill="#FFFFFF" d="M581.9,381.8h-4.3c-5.1,0-9.3-4.2-9.3-9.3v-4.3c0-5.1,4.2-9.3,9.3-9.3h4.3c5.1,0,9.3,4.2,9.3,9.3v4.3
							C591.2,377.7,587.1,381.8,581.9,381.8z"/>
						<path fill="#FFFFFF" d="M614.6,381.8h-4.3c-5.1,0-9.3-4.2-9.3-9.3v-4.3c0-5.1,4.2-9.3,9.3-9.3h4.3c5.1,0,9.3,4.2,9.3,9.3v4.3
							C623.9,377.7,619.7,381.8,614.6,381.8z"/>
						<path fill="#FFFFFF" d="M647.3,381.8h-4.3c-5.1,0-9.3-4.2-9.3-9.3v-4.3c0-5.1,4.2-9.3,9.3-9.3h4.3c5.1,0,9.3,4.2,9.3,9.3v4.3
							C656.5,377.7,652.4,381.8,647.3,381.8z"/>
						<path fill="#FFFFFF" d="M679.9,381.8h-4.3c-5.1,0-9.3-4.2-9.3-9.3v-4.3c0-5.1,4.2-9.3,9.3-9.3h4.3c5.1,0,9.3,4.2,9.3,9.3v4.3
							C689.2,377.7,685,381.8,679.9,381.8z"/>
						<path fill="#FFFFFF" d="M712.6,381.8h-4.3c-5.1,0-9.3-4.2-9.3-9.3v-4.3c0-5.1,4.2-9.3,9.3-9.3h4.3c5.1,0,9.3,4.2,9.3,9.3v4.3
							C721.9,377.7,717.7,381.8,712.6,381.8z"/>
						<path fill="#FFFFFF" d="M745.2,381.8h-4.3c-5.1,0-9.3-4.2-9.3-9.3v-4.3c0-5.1,4.2-9.3,9.3-9.3h4.3c5.1,0,9.3,4.2,9.3,9.3v4.3
							C754.5,377.7,750.4,381.8,745.2,381.8z"/>
						<path fill="#FFFFFF" d="M777.9,381.8h-4.3c-5.1,0-9.3-4.2-9.3-9.3v-4.3c0-5.1,4.2-9.3,9.3-9.3h4.3c5.1,0,9.3,4.2,9.3,9.3v4.3
							C787.2,377.7,783,381.8,777.9,381.8z"/>
						<path fill="#FFFFFF" d="M810.6,381.8h-4.3c-5.1,0-9.3-4.2-9.3-9.3v-4.3c0-5.1,4.2-9.3,9.3-9.3h4.3c5.1,0,9.3,4.2,9.3,9.3v4.3
							C819.8,377.7,815.7,381.8,810.6,381.8z"/>
						<path fill="#FFFFFF" d="M843.2,381.8h-4.3c-5.1,0-9.3-4.2-9.3-9.3v-4.3c0-5.1,4.2-9.3,9.3-9.3h4.3c5.1,0,9.3,4.2,9.3,9.3v4.3
							C852.5,377.7,848.4,381.8,843.2,381.8z"/>
						<path fill="#FFFFFF" d="M875.9,381.8h-4.3c-5.1,0-9.3-4.2-9.3-9.3v-4.3c0-5.1,4.2-9.3,9.3-9.3h4.3c5.1,0,9.3,4.2,9.3,9.3v4.3
							C885.2,377.7,881,381.8,875.9,381.8z"/>
						<path fill="#FFFFFF" d="M565.6,413.4h-4.3c-5.1,0-9.3-4.2-9.3-9.3v-4.3c0-5.1,4.2-9.3,9.3-9.3h4.3c5.1,0,9.3,4.2,9.3,9.3v4.3
							C574.9,409.2,570.7,413.4,565.6,413.4z"/>
						<path fill="#FFFFFF" d="M598.3,413.4H594c-5.1,0-9.3-4.2-9.3-9.3v-4.3c0-5.1,4.2-9.3,9.3-9.3h4.3c5.1,0,9.3,4.2,9.3,9.3v4.3
							C607.5,409.2,603.4,413.4,598.3,413.4z"/>
						<path fill="#FFFFFF" d="M630.9,413.4h-4.3c-5.1,0-9.3-4.2-9.3-9.3v-4.3c0-5.1,4.2-9.3,9.3-9.3h4.3c5.1,0,9.3,4.2,9.3,9.3v4.3
							C640.2,409.2,636.1,413.4,630.9,413.4z"/>
						<path fill="#FFFFFF" d="M663.6,413.4h-4.3c-5.1,0-9.3-4.2-9.3-9.3v-4.3c0-5.1,4.2-9.3,9.3-9.3h4.3c5.1,0,9.3,4.2,9.3,9.3v4.3
							C672.9,409.2,668.7,413.4,663.6,413.4z"/>
						<path fill="#FFFFFF" d="M696.3,413.4h-4.3c-5.1,0-9.3-4.2-9.3-9.3v-4.3c0-5.1,4.2-9.3,9.3-9.3h4.3c5.1,0,9.3,4.2,9.3,9.3v4.3
							C705.5,409.2,701.4,413.4,696.3,413.4z"/>
						<path fill="#FFFFFF" d="M728.9,413.4h-4.3c-5.1,0-9.3-4.2-9.3-9.3v-4.3c0-5.1,4.2-9.3,9.3-9.3h4.3c5.1,0,9.3,4.2,9.3,9.3v4.3
							C738.2,409.2,734,413.4,728.9,413.4z"/>
						<path fill="#FFFFFF" d="M761.6,413.4h-4.3c-5.1,0-9.3-4.2-9.3-9.3v-4.3c0-5.1,4.2-9.3,9.3-9.3h4.3c5.1,0,9.3,4.2,9.3,9.3v4.3
							C770.9,409.2,766.7,413.4,761.6,413.4z"/>
						<path fill="#FFFFFF" d="M794.2,413.4h-4.3c-5.1,0-9.3-4.2-9.3-9.3v-4.3c0-5.1,4.2-9.3,9.3-9.3h4.3c5.1,0,9.3,4.2,9.3,9.3v4.3
							C803.5,409.2,799.4,413.4,794.2,413.4z"/>
						<path fill="#FFFFFF" d="M826.9,413.4h-4.3c-5.1,0-9.3-4.2-9.3-9.3v-4.3c0-5.1,4.2-9.3,9.3-9.3h4.3c5.1,0,9.3,4.2,9.3,9.3v4.3
							C836.2,409.2,832,413.4,826.9,413.4z"/>
						<path fill="#FFFFFF" d="M859.6,413.4h-4.3c-5.1,0-9.3-4.2-9.3-9.3v-4.3c0-5.1,4.2-9.3,9.3-9.3h4.3c5.1,0,9.3,4.2,9.3,9.3v4.3
							C868.8,409.2,864.7,413.4,859.6,413.4z"/>
						<path fill="#FFFFFF" d="M598.3,350.3H594c-5.1,0-9.3-4.2-9.3-9.3v-4.3c0-5.1,4.2-9.3,9.3-9.3h4.3c5.1,0,9.3,4.2,9.3,9.3v4.3
							C607.5,346.1,603.4,350.3,598.3,350.3z"/>
						<path fill="#FFFFFF" d="M630.9,350.3h-4.3c-5.1,0-9.3-4.2-9.3-9.3v-4.3c0-5.1,4.2-9.3,9.3-9.3h4.3c5.1,0,9.3,4.2,9.3,9.3v4.3
							C640.2,346.1,636.1,350.3,630.9,350.3z"/>
						<path fill="#FFFFFF" d="M663.6,350.3h-4.3c-5.1,0-9.3-4.2-9.3-9.3v-4.3c0-5.1,4.2-9.3,9.3-9.3h4.3c5.1,0,9.3,4.2,9.3,9.3v4.3
							C672.9,346.1,668.7,350.3,663.6,350.3z"/>
						<path fill="#FFFFFF" d="M696.3,350.3h-4.3c-5.1,0-9.3-4.2-9.3-9.3v-4.3c0-5.1,4.2-9.3,9.3-9.3h4.3c5.1,0,9.3,4.2,9.3,9.3v4.3
							C705.5,346.1,701.4,350.3,696.3,350.3z"/>
						<path fill="#FFFFFF" d="M728.9,350.3h-4.3c-5.1,0-9.3-4.2-9.3-9.3v-4.3c0-5.1,4.2-9.3,9.3-9.3h4.3c5.1,0,9.3,4.2,9.3,9.3v4.3
							C738.2,346.1,734,350.3,728.9,350.3z"/>
						<path fill="#FFFFFF" d="M761.6,350.3h-4.3c-5.1,0-9.3-4.2-9.3-9.3v-4.3c0-5.1,4.2-9.3,9.3-9.3h4.3c5.1,0,9.3,4.2,9.3,9.3v4.3
							C770.9,346.1,766.7,350.3,761.6,350.3z"/>
						<path fill="#FFFFFF" d="M794.2,350.3h-4.3c-5.1,0-9.3-4.2-9.3-9.3v-4.3c0-5.1,4.2-9.3,9.3-9.3h4.3c5.1,0,9.3,4.2,9.3,9.3v4.3
							C803.5,346.1,799.4,350.3,794.2,350.3z"/>
						<path fill="#FFFFFF" d="M826.9,350.3h-4.3c-5.1,0-9.3-4.2-9.3-9.3v-4.3c0-5.1,4.2-9.3,9.3-9.3h4.3c5.1,0,9.3,4.2,9.3,9.3v4.3
							C836.2,346.1,832,350.3,826.9,350.3z"/>
						<path fill="#FFFFFF" d="M859.6,350.3h-4.3c-5.1,0-9.3-4.2-9.3-9.3v-4.3c0-5.1,4.2-9.3,9.3-9.3h4.3c5.1,0,9.3,4.2,9.3,9.3v4.3
							C868.8,346.1,864.7,350.3,859.6,350.3z"/>
						<path fill="#FFFFFF" d="M892.2,350.3h-4.3c-5.1,0-9.3-4.2-9.3-9.3v-4.3c0-5.1,4.2-9.3,9.3-9.3h4.3c5.1,0,9.3,4.2,9.3,9.3v4.3
							C901.5,346.1,897.3,350.3,892.2,350.3z"/>
						<path fill="#FFFFFF" d="M581.9,318.8h-4.3c-5.1,0-9.3-4.2-9.3-9.3v-4.3c0-5.1,4.2-9.3,9.3-9.3h4.3c5.1,0,9.3,4.2,9.3,9.3v4.3
							C591.2,314.6,587.1,318.8,581.9,318.8z"/>
						<path fill="#FFFFFF" d="M614.6,318.8h-4.3c-5.1,0-9.3-4.2-9.3-9.3v-4.3c0-5.1,4.2-9.3,9.3-9.3h4.3c5.1,0,9.3,4.2,9.3,9.3v4.3
							C623.9,314.6,619.7,318.8,614.6,318.8z"/>
						<path fill="#FFFFFF" d="M647.3,318.8h-4.3c-5.1,0-9.3-4.2-9.3-9.3v-4.3c0-5.1,4.2-9.3,9.3-9.3h4.3c5.1,0,9.3,4.2,9.3,9.3v4.3
							C656.5,314.6,652.4,318.8,647.3,318.8z"/>
						<path fill="#FFFFFF" d="M679.9,318.8h-4.3c-5.1,0-9.3-4.2-9.3-9.3v-4.3c0-5.1,4.2-9.3,9.3-9.3h4.3c5.1,0,9.3,4.2,9.3,9.3v4.3
							C689.2,314.6,685,318.8,679.9,318.8z"/>
						<path fill="#FFFFFF" d="M712.6,318.8h-4.3c-5.1,0-9.3-4.2-9.3-9.3v-4.3c0-5.1,4.2-9.3,9.3-9.3h4.3c5.1,0,9.3,4.2,9.3,9.3v4.3
							C721.9,314.6,717.7,318.8,712.6,318.8z"/>
						<path fill="#FFFFFF" d="M745.2,318.8h-4.3c-5.1,0-9.3-4.2-9.3-9.3v-4.3c0-5.1,4.2-9.3,9.3-9.3h4.3c5.1,0,9.3,4.2,9.3,9.3v4.3
							C754.5,314.6,750.4,318.8,745.2,318.8z"/>
						<path fill="#FFFFFF" d="M777.9,318.8h-4.3c-5.1,0-9.3-4.2-9.3-9.3v-4.3c0-5.1,4.2-9.3,9.3-9.3h4.3c5.1,0,9.3,4.2,9.3,9.3v4.3
							C787.2,314.6,783,318.8,777.9,318.8z"/>
						<path fill="#FFFFFF" d="M810.6,318.8h-4.3c-5.1,0-9.3-4.2-9.3-9.3v-4.3c0-5.1,4.2-9.3,9.3-9.3h4.3c5.1,0,9.3,4.2,9.3,9.3v4.3
							C819.8,314.6,815.7,318.8,810.6,318.8z"/>
						<path fill="#FFFFFF" d="M843.2,318.8h-4.3c-5.1,0-9.3-4.2-9.3-9.3v-4.3c0-5.1,4.2-9.3,9.3-9.3h4.3c5.1,0,9.3,4.2,9.3,9.3v4.3
							C852.5,314.6,848.4,318.8,843.2,318.8z"/>
						<path fill="#FFFFFF" d="M875.9,318.8h-4.3c-5.1,0-9.3-4.2-9.3-9.3v-4.3c0-5.1,4.2-9.3,9.3-9.3h4.3c5.1,0,9.3,4.2,9.3,9.3v4.3
							C885.2,314.6,881,318.8,875.9,318.8z"/>
						<path fill="#FFFFFF" d="M908.6,318.8h-4.3c-5.1,0-9.3-4.2-9.3-9.3v-4.3c0-5.1,4.2-9.3,9.3-9.3h4.3c5.1,0,9.3,4.2,9.3,9.3v4.3
							C917.8,314.6,913.7,318.8,908.6,318.8z"/>
					</g>
				</g>
				<path fill="#414042" d="M745.3,116c0-8.3-2.9-16-7.7-22h-6.4c5.8,5.6,9.4,13.4,9.4,22c0,16.9-13.7,30.6-30.6,30.6
					c-16.9,0-30.6-13.7-30.6-30.6c0-8.6,3.6-16.4,9.4-22h-6.4c-4.8,6-7.7,13.7-7.7,22c0,19.5,15.9,35.4,35.4,35.4
					C729.5,151.4,745.3,135.5,745.3,116z"/>
				<path fill="#414042" d="M767.7,119.3l-4.7-2.4c-0.5,28.8-24.1,52.2-53,52.2c-28.9,0-52.5-23.3-53-52.2l-4.7,2.4
					c1.7,30.3,26.9,54.5,57.7,54.5S766,149.6,767.7,119.3z"/>
				<path fill="#F75F2D" d="M784.4,127.8l-4.5-2.3c-4.7,34.5-34.2,61.1-70,61.1c-35.7,0-65.3-26.6-70-61.1l-4.5,2.3
					c5.7,36,36.9,63.6,74.4,63.6C747.5,191.4,778.7,163.8,784.4,127.8z"/>
				<path fill="#FFFFFF" d="M568.3,259.7h-67.2c-6.1,0-11.1-5-11.1-11.1l0,0c0-6.1,5-11.1,11.1-11.1h67.2c6.1,0,11.1,5,11.1,11.1
					l0,0C579.4,254.7,574.4,259.7,568.3,259.7z"/>
				<path fill="#414042" d="M710,94h-42v17.3l-99.3,50.6l-1.8,2.3c0,0,1.2,4.3,4.6,10.8l116.4-58.7C687.8,103.9,697.7,94,710,94z"/>
				<path fill="#414042" d="M710,94h42v17.3l99.3,50.6l1.8,2.3c0,0-1.2,4.3-4.6,10.8l-116.4-58.7C732.1,103.9,722.2,94,710,94z"/>
				<g>
					<rect x="465.6" y="-102.1" fill="#414042" width="488.8" height="103"/>
					<g>
						<rect x="465.6" y="-52.4" fill="#F75F2D" width="488.8" height="3.6"/>
					</g>
					<rect x="465.6" y="-102.1" fill="#FFFFFF" width="4.8" height="103"/>
					<rect x="468" y="-3.9" fill="#FFFFFF" width="484" height="4.8"/>
					<rect x="949.6" y="-102.1" fill="#FFFFFF" width="4.8" height="103"/>
				</g>
				<path fill="#FFFFFF" d="M892.6-241.4c0-31.9,25.9-57.7,57.9-57.7h-57.9H689.4H583.7c-31.1,0-56.3,25.1-56.3,56.1V69.1h365.1
					v-223.5v-58.3V-241.4z"/>
				<g>
					<path fill="#F75F2D" d="M654.5,43.1h-71.2c-5.8,0-11.3,2.8-14.7,7.4L554,70.2h91.5L658.9,52C661.6,48.3,659,43.1,654.5,43.1z"
						/>
					<path fill="#F75F2D" d="M766.7,43.1h71.2c5.8,0,11.3,2.8,14.7,7.4l14.5,19.7h-91.5L762.2,52C759.5,48.3,762.1,43.1,766.7,43.1z
						"/>
				</g>
				<g>
					<path fill="#F75F2D" d="M502.2,248.6c0,1.4-1.2,2.6-2.6,2.6c-1.4,0-2.6-1.2-2.6-2.6c0-1.4,1.2-2.6,2.6-2.6
						C501.1,246,502.2,247.2,502.2,248.6z"/>
					<path fill="#F75F2D" d="M572.4,248.6c0,1.4-1.2,2.6-2.6,2.6c-1.4,0-2.6-1.2-2.6-2.6c0-1.4,1.2-2.6,2.6-2.6
						C571.2,246,572.4,247.2,572.4,248.6z"/>
				</g>
				<polygon fill="#414042" points="721.1,69 720,69 719.5,69 719.5,117.4 710,117.4 710,117.4 700.5,117.4 700.5,69 699.9,69 
					698.9,69 683,69 683,70.4 698.9,70.4 698.9,117.4 698.9,118.8 700.5,118.8 710,118.8 710,118.8 719.5,118.8 721.1,118.8 
					721.1,117.4 721.1,70.4 737,70.4 737,69 				"/>
			</g>
			<g id="XMLID_13_">
				<path id="XMLID_21_" fill="#F1F2F2" d="M309.5-401.3l-78.3,42.2c-5.4,2.9-7.5,9.7-4.5,15.1l6.7,12.4l77.5,143.8l6.7,12.4
					c2.9,5.4,9.7,7.5,15.1,4.5l78.3-42.2c5.4-2.9,7.5-9.7,4.5-15.1l-6.7-12.4l-77.5-143.8l-6.7-12.4
					C321.7-402.2,314.9-404.2,309.5-401.3z"/>
				
					<rect id="XMLID_20_" x="273.1" y="-370.7" transform="matrix(0.8803 -0.4744 0.4744 0.8803 175.4556 116.8535)" fill="#46484B" width="92.3" height="162.8"/>
				<g id="XMLID_16_">
					<path id="XMLID_17_" fill="#939598" d="M368.4-198.1c-4.3,2.3-9.7,0.7-12-3.6c-2.3-4.3-0.7-9.7,3.6-12c4.3-2.3,9.7-0.7,12,3.6
						C374.3-205.8,372.7-200.4,368.4-198.1z M360.5-212.7c-3.8,2-5.2,6.7-3.1,10.5c2,3.8,6.7,5.2,10.5,3.1c3.8-2,5.2-6.7,3.1-10.5
						C369-213.3,364.3-214.8,360.5-212.7z"/>
				</g>
				<path id="XMLID_15_" fill="#E6E7E8" d="M288.1-376.4c-0.6-1.1-1.9-1.5-3-0.9l-24.9,13.4c-1.1,0.6-1.5,1.9-0.9,3
					c0.6,1.1,1.9,1.5,3,0.9l24.9-13.4C288.3-374,288.7-375.4,288.1-376.4z"/>
				<path id="XMLID_14_" fill="#E6E7E8" d="M294.2-377.1l-0.5,0.3c-1,0.5-2.1,0.2-2.7-0.8l-0.3-0.5c-0.5-1-0.2-2.1,0.8-2.7l0.5-0.3
					c1-0.5,2.1-0.2,2.7,0.8l0.3,0.5C295.5-378.9,295.2-377.7,294.2-377.1z"/>
			</g>
			<g id="XMLID_1_">
				
					<ellipse id="XMLID_12_" transform="matrix(0.7071 -0.7071 0.7071 0.7071 588.2997 744.6869)" fill="#E2E2E2" cx="1193.1" cy="-337.8" rx="96.2" ry="96.2"/>
				<path id="XMLID_11_" fill="#C6C6C6" d="M1248.8-382.9l-111.5,90.1l44.7,50.5c3.6,0.4,7.3,0.7,11.1,0.7
					c52.9,0,95.8-42.7,96.2-95.4L1248.8-382.9z"/>
				<circle id="XMLID_10_" fill="#C49A6C" cx="1135.1" cy="-284.6" r="31.6"/>
				
					<ellipse id="XMLID_9_" transform="matrix(0.8437 -0.5368 0.5368 0.8437 332.5064 562.1689)" fill="#AD855E" cx="1131.7" cy="-289.9" rx="31" ry="25.2"/>
				<circle id="XMLID_8_" fill="#C49A6C" cx="1125.1" cy="-300.4" r="31.6"/>
				<circle id="XMLID_7_" fill="#F1F2F2" cx="1193.1" cy="-337.8" r="71.7"/>
				<circle id="XMLID_6_" fill="#D3D3D3" cx="1193.1" cy="-337.8" r="61.4"/>
				<circle id="XMLID_5_" fill="#3C2415" cx="1193.1" cy="-337.8" r="55.8"/>
				<path id="XMLID_4_" fill="#603913" d="M1248.5-343.9c-3-27.9-26.7-49.6-55.4-49.6c-30.8,0-55.8,25-55.8,55.8
					c0,16.5,7.2,31.4,18.6,41.6c4.8,0.8,9.7,1.3,14.7,1.3C1204.9-295,1234.5-314.9,1248.5-343.9z"/>
				<g id="XMLID_2_">
					<path id="XMLID_3_" fill="#F1F2F2" d="M1289.2-328.9h-24.5c-4.9,0-8.9-4-8.9-8.9c0-4.9,4-8.9,8.9-8.9h24.5c4.9,0,8.9,4,8.9,8.9
						C1298.2-332.9,1294.2-328.9,1289.2-328.9z"/>
				</g>
			</g>
			<g>
				<g>
					<g>
						<path fill="#17384E" d="M1455.9-144.5l-7.3,1.4l-163,32h0l0,0l-7.3,1.4l0,0v0l52.5,267.3l7.3-1.4l163.1-32l7.3-1.4
							c5.8-1.1,9.5-6.7,8.4-12.5L1496.7,8.2l-8.3-42.2l-20-102.1C1467.2-141.8,1461.6-145.6,1455.9-144.5z"/>
						<path fill="#F4F5F5" d="M1496.9,72.1l-14.1-71.9l-1.1-5.8l-1.9-9.9l-1.1-5.8l-14.1-71.9l-3.1-15.7c-2.7-13.7-16-22.7-29.7-20
							l-47.9,9.4l0,0l-98.7,19.4l0,0h0l3.1,15.7l19,96.8l1.1,5.8l1.9,9.9l1.1,5.8l19,96.8l3.1,15.7l146.6-28.8
							c13.7-2.7,22.7-16,20-29.7L1496.9,72.1z"/>
					</g>
					<g>
						<g>
							
								<rect x="1304.3" y="-101.5" transform="matrix(0.9813 -0.1927 0.1927 0.9813 45.2191 262.7663)" fill="#929497" width="138.9" height="0.8"/>
						</g>
						<g>
							
								<rect x="1307" y="-88.1" transform="matrix(0.9813 -0.1927 0.1927 0.9813 42.6821 263.5295)" fill="#929497" width="138.9" height="0.8"/>
						</g>
						<g>
							
								<rect x="1309.6" y="-74.7" transform="matrix(0.9813 -0.1926 0.1926 0.9813 40.1385 264.2684)" fill="#929497" width="138.9" height="0.8"/>
						</g>
						<g>
							
								<rect x="1312.2" y="-61.2" transform="matrix(0.9813 -0.1926 0.1926 0.9813 37.6003 265.0283)" fill="#929497" width="138.9" height="0.8"/>
						</g>
						<g>
							
								<rect x="1314.9" y="-47.8" transform="matrix(0.9813 -0.1926 0.1926 0.9813 35.0618 265.784)" fill="#929497" width="138.9" height="0.8"/>
						</g>
						<g>
							
								<rect x="1317.5" y="-34.4" transform="matrix(0.9813 -0.1926 0.1926 0.9813 32.5243 266.5453)" fill="#929497" width="138.9" height="0.8"/>
						</g>
						<g>
							
								<rect x="1320.1" y="-21" transform="matrix(0.9813 -0.1926 0.1926 0.9813 29.9869 267.3083)" fill="#929497" width="138.9" height="0.8"/>
						</g>
						<g>
							<polygon fill="#929497" points="1460.5,-20.1 1324.2,6.7 1324,5.9 1460.3,-20.9 							"/>
						</g>
						<g>
							<polygon fill="#929497" points="1463.1,-6.7 1326.8,20.1 1326.6,19.3 1463,-7.5 							"/>
						</g>
						<g>
							
								<rect x="1328.1" y="19.3" transform="matrix(0.9813 -0.1927 0.1927 0.9813 22.3784 269.6174)" fill="#929497" width="138.9" height="0.8"/>
						</g>
						<g>
							
								<rect x="1330.7" y="32.8" transform="matrix(0.9813 -0.1926 0.1926 0.9813 19.8375 270.36)" fill="#929497" width="138.9" height="0.8"/>
						</g>
						<g>
							<polygon fill="#929497" points="1471,33.6 1334.7,60.4 1334.5,59.6 1470.9,32.8 							"/>
						</g>
						<g>
							
								<rect x="1336" y="59.6" transform="matrix(0.9813 -0.1926 0.1926 0.9813 14.7589 271.8655)" fill="#929497" width="138.9" height="0.8"/>
						</g>
						<g>
							
								<rect x="1338.6" y="73.1" transform="matrix(0.9813 -0.1926 0.1926 0.9813 12.2187 272.6082)" fill="#929497" width="138.9" height="0.8"/>
						</g>
						<g>
							
								<rect x="1341.2" y="86.5" transform="matrix(0.9813 -0.1926 0.1926 0.9813 9.6829 273.3845)" fill="#929497" width="138.9" height="0.8"/>
						</g>
						<g>
							
								<rect x="1343.9" y="99.9" transform="matrix(0.9813 -0.1926 0.1926 0.9813 7.1448 274.1408)" fill="#929497" width="138.9" height="0.8"/>
						</g>
						<g>
							
								<rect x="1346.5" y="113.4" transform="matrix(0.9813 -0.1926 0.1926 0.9813 4.6068 274.9016)" fill="#929497" width="138.9" height="0.8"/>
						</g>
					</g>
					<g>
						<path fill="#17384E" d="M1298.9-91.1c0.3,1.8-0.8,3.5-2.6,3.8c-1.8,0.3-3.5-0.8-3.8-2.6c-0.3-1.8,0.8-3.5,2.6-3.8
							C1296.8-94,1298.5-92.9,1298.9-91.1z"/>
						<path fill="#17384E" d="M1303.3-68.7c0.3,1.8-0.8,3.5-2.6,3.8c-1.8,0.3-3.5-0.8-3.8-2.6c-0.3-1.8,0.8-3.5,2.6-3.8
							C1301.2-71.6,1302.9-70.5,1303.3-68.7z"/>
						<path fill="#17384E" d="M1307.7-46.3c0.3,1.8-0.8,3.5-2.6,3.8c-1.8,0.3-3.5-0.8-3.8-2.6c-0.3-1.8,0.8-3.5,2.6-3.8
							C1305.6-49.2,1307.3-48.1,1307.7-46.3z"/>
						<path fill="#17384E" d="M1312.1-23.9c0.3,1.8-0.8,3.5-2.6,3.8c-1.8,0.3-3.5-0.8-3.8-2.6c-0.3-1.8,0.8-3.5,2.6-3.8
							C1310-26.9,1311.7-25.7,1312.1-23.9z"/>
						<path fill="#17384E" d="M1316.4-1.5c0.3,1.8-0.8,3.5-2.6,3.8c-1.8,0.3-3.5-0.8-3.8-2.6c-0.3-1.8,0.8-3.5,2.6-3.8
							C1314.4-4.5,1316.1-3.3,1316.4-1.5z"/>
						<path fill="#17384E" d="M1320.8,20.8c0.3,1.8-0.8,3.5-2.6,3.8c-1.8,0.3-3.5-0.8-3.8-2.6c-0.3-1.8,0.8-3.5,2.6-3.8
							C1318.8,17.9,1320.5,19.1,1320.8,20.8z"/>
						<path fill="#17384E" d="M1325.2,43.2c0.3,1.8-0.8,3.5-2.6,3.8c-1.8,0.3-3.5-0.8-3.8-2.6c-0.3-1.8,0.8-3.5,2.6-3.8
							C1323.2,40.3,1324.9,41.5,1325.2,43.2z"/>
						<path fill="#17384E" d="M1329.6,65.6c0.3,1.8-0.8,3.5-2.6,3.8c-1.8,0.3-3.5-0.8-3.8-2.6c-0.3-1.8,0.8-3.5,2.6-3.8
							C1327.6,62.7,1329.3,63.8,1329.6,65.6z"/>
						<path fill="#17384E" d="M1334,88c0.3,1.8-0.8,3.5-2.6,3.8c-1.8,0.3-3.5-0.8-3.8-2.6c-0.3-1.8,0.8-3.5,2.6-3.8
							C1332,85.1,1333.7,86.2,1334,88z"/>
						<path fill="#17384E" d="M1338.4,110.4c0.3,1.8-0.8,3.5-2.6,3.8c-1.8,0.3-3.5-0.8-3.8-2.6c-0.3-1.8,0.8-3.5,2.6-3.8
							C1336.4,107.5,1338.1,108.6,1338.4,110.4z"/>
						<path fill="#17384E" d="M1342.8,132.8c0.3,1.8-0.8,3.5-2.6,3.8c-1.8,0.3-3.5-0.8-3.8-2.6c-0.3-1.8,0.8-3.5,2.6-3.8
							C1340.7,129.8,1342.5,131,1342.8,132.8z"/>
					</g>
					
						<rect x="1453.8" y="-142.1" transform="matrix(0.9814 -0.1921 0.1921 0.9814 28.2778 279.8346)" fill="#CC2943" width="6.5" height="272.4"/>
					<g>
						<path fill="#17384E" d="M1455.9-144.5l-7.3,1.4l-163,32h0l0,0l-7.3,1.4l0,0v0l52.5,267.3l7.3-1.4l163.1-32l7.3-1.4
							c5.8-1.1,9.5-6.7,8.4-12.5L1496.7,8.2l-8.3-42.2l-20-102.1C1467.2-141.8,1461.6-145.6,1455.9-144.5z"/>
						<path fill="#F4F5F5" d="M1496.9,72.1l-14.1-71.9l-1.1-5.8l-1.9-9.9l-1.1-5.8l-14.1-71.9l-3.1-15.7c-2.7-13.7-16-22.7-29.7-20
							l-47.9,9.4l0,0l-98.7,19.4l0,0h0l3.1,15.7l19,96.8l1.1,5.8l1.9,9.9l1.1,5.8l19,96.8l3.1,15.7l146.6-28.8
							c13.7-2.7,22.7-16,20-29.7L1496.9,72.1z"/>
					</g>
					<g>
						<g>
							
								<rect x="1304.3" y="-101.5" transform="matrix(0.9813 -0.1927 0.1927 0.9813 45.2191 262.7663)" fill="#929497" width="138.9" height="0.8"/>
						</g>
						<g>
							
								<rect x="1307" y="-88.1" transform="matrix(0.9813 -0.1927 0.1927 0.9813 42.6821 263.5295)" fill="#929497" width="138.9" height="0.8"/>
						</g>
						<g>
							
								<rect x="1309.6" y="-74.7" transform="matrix(0.9813 -0.1926 0.1926 0.9813 40.1385 264.2684)" fill="#929497" width="138.9" height="0.8"/>
						</g>
						<g>
							
								<rect x="1312.2" y="-61.2" transform="matrix(0.9813 -0.1926 0.1926 0.9813 37.6003 265.0283)" fill="#929497" width="138.9" height="0.8"/>
						</g>
						<g>
							
								<rect x="1314.9" y="-47.8" transform="matrix(0.9813 -0.1926 0.1926 0.9813 35.0618 265.784)" fill="#929497" width="138.9" height="0.8"/>
						</g>
						<g>
							
								<rect x="1317.5" y="-34.4" transform="matrix(0.9813 -0.1926 0.1926 0.9813 32.5243 266.5453)" fill="#929497" width="138.9" height="0.8"/>
						</g>
						<g>
							
								<rect x="1320.1" y="-21" transform="matrix(0.9813 -0.1926 0.1926 0.9813 29.9869 267.3083)" fill="#929497" width="138.9" height="0.8"/>
						</g>
						<g>
							<polygon fill="#929497" points="1460.5,-20.1 1324.2,6.7 1324,5.9 1460.3,-20.9 							"/>
						</g>
						<g>
							<polygon fill="#929497" points="1463.1,-6.7 1326.8,20.1 1326.6,19.3 1463,-7.5 							"/>
						</g>
						<g>
							
								<rect x="1328.1" y="19.3" transform="matrix(0.9813 -0.1927 0.1927 0.9813 22.3784 269.6174)" fill="#929497" width="138.9" height="0.8"/>
						</g>
						<g>
							
								<rect x="1330.7" y="32.8" transform="matrix(0.9813 -0.1926 0.1926 0.9813 19.8375 270.36)" fill="#929497" width="138.9" height="0.8"/>
						</g>
						<g>
							<polygon fill="#929497" points="1471,33.6 1334.7,60.4 1334.5,59.6 1470.9,32.8 							"/>
						</g>
						<g>
							
								<rect x="1336" y="59.6" transform="matrix(0.9813 -0.1926 0.1926 0.9813 14.7589 271.8655)" fill="#929497" width="138.9" height="0.8"/>
						</g>
						<g>
							
								<rect x="1338.6" y="73.1" transform="matrix(0.9813 -0.1926 0.1926 0.9813 12.2187 272.6082)" fill="#929497" width="138.9" height="0.8"/>
						</g>
						<g>
							
								<rect x="1341.2" y="86.5" transform="matrix(0.9813 -0.1926 0.1926 0.9813 9.6829 273.3845)" fill="#929497" width="138.9" height="0.8"/>
						</g>
						<g>
							
								<rect x="1343.9" y="99.9" transform="matrix(0.9813 -0.1926 0.1926 0.9813 7.1448 274.1408)" fill="#929497" width="138.9" height="0.8"/>
						</g>
						<g>
							
								<rect x="1346.5" y="113.4" transform="matrix(0.9813 -0.1926 0.1926 0.9813 4.6068 274.9016)" fill="#929497" width="138.9" height="0.8"/>
						</g>
					</g>
					<g>
						<path fill="#17384E" d="M1298.9-91.1c0.3,1.8-0.8,3.5-2.6,3.8c-1.8,0.3-3.5-0.8-3.8-2.6c-0.3-1.8,0.8-3.5,2.6-3.8
							C1296.8-94,1298.5-92.9,1298.9-91.1z"/>
						<path fill="#17384E" d="M1303.3-68.7c0.3,1.8-0.8,3.5-2.6,3.8c-1.8,0.3-3.5-0.8-3.8-2.6c-0.3-1.8,0.8-3.5,2.6-3.8
							C1301.2-71.6,1302.9-70.5,1303.3-68.7z"/>
						<path fill="#17384E" d="M1307.7-46.3c0.3,1.8-0.8,3.5-2.6,3.8c-1.8,0.3-3.5-0.8-3.8-2.6c-0.3-1.8,0.8-3.5,2.6-3.8
							C1305.6-49.2,1307.3-48.1,1307.7-46.3z"/>
						<path fill="#17384E" d="M1312.1-23.9c0.3,1.8-0.8,3.5-2.6,3.8c-1.8,0.3-3.5-0.8-3.8-2.6c-0.3-1.8,0.8-3.5,2.6-3.8
							C1310-26.9,1311.7-25.7,1312.1-23.9z"/>
						<path fill="#17384E" d="M1316.4-1.5c0.3,1.8-0.8,3.5-2.6,3.8c-1.8,0.3-3.5-0.8-3.8-2.6c-0.3-1.8,0.8-3.5,2.6-3.8
							C1314.4-4.5,1316.1-3.3,1316.4-1.5z"/>
						<path fill="#17384E" d="M1320.8,20.8c0.3,1.8-0.8,3.5-2.6,3.8c-1.8,0.3-3.5-0.8-3.8-2.6c-0.3-1.8,0.8-3.5,2.6-3.8
							C1318.8,17.9,1320.5,19.1,1320.8,20.8z"/>
						<path fill="#17384E" d="M1325.2,43.2c0.3,1.8-0.8,3.5-2.6,3.8c-1.8,0.3-3.5-0.8-3.8-2.6c-0.3-1.8,0.8-3.5,2.6-3.8
							C1323.2,40.3,1324.9,41.5,1325.2,43.2z"/>
						<path fill="#17384E" d="M1329.6,65.6c0.3,1.8-0.8,3.5-2.6,3.8c-1.8,0.3-3.5-0.8-3.8-2.6c-0.3-1.8,0.8-3.5,2.6-3.8
							C1327.6,62.7,1329.3,63.8,1329.6,65.6z"/>
						<path fill="#17384E" d="M1334,88c0.3,1.8-0.8,3.5-2.6,3.8c-1.8,0.3-3.5-0.8-3.8-2.6c-0.3-1.8,0.8-3.5,2.6-3.8
							C1332,85.1,1333.7,86.2,1334,88z"/>
						<path fill="#17384E" d="M1338.4,110.4c0.3,1.8-0.8,3.5-2.6,3.8c-1.8,0.3-3.5-0.8-3.8-2.6c-0.3-1.8,0.8-3.5,2.6-3.8
							C1336.4,107.5,1338.1,108.6,1338.4,110.4z"/>
						<path fill="#17384E" d="M1342.8,132.8c0.3,1.8-0.8,3.5-2.6,3.8c-1.8,0.3-3.5-0.8-3.8-2.6c-0.3-1.8,0.8-3.5,2.6-3.8
							C1340.7,129.8,1342.5,131,1342.8,132.8z"/>
					</g>
					
						<rect x="1453.8" y="-142.1" transform="matrix(0.9814 -0.1921 0.1921 0.9814 28.2778 279.8346)" fill="#CC2943" width="6.5" height="272.4"/>
					<g>
						<path fill="#17384E" d="M1091.5-72.9l7.3-1.4l163.1-32l0,0v0l7.3-1.4l0,0h0l52.5,267.3l-7.3,1.4l-163.1,32l-7.3,1.4
							c-5.8,1.1-11.3-2.6-12.5-8.4l-20-102.1l-8.3-42.2l-20-102.1C1082-66.2,1085.7-71.8,1091.5-72.9z"/>
						<path fill="#F4F5F5" d="M1135.4,143.1l-14.1-71.9l-1.1-5.8l-1.9-9.9l-1.1-5.8L1103-22.2l-3.1-15.7c-2.7-13.7,6.3-27,20-29.7
							l47.9-9.4l0,0l98.7-19.4l0,0h0l3.1,15.7l19,96.8l1.1,5.8l1.9,9.9l1.1,5.8l19,96.8l3.1,15.7l-146.6,28.7
							c-13.7,2.7-27-6.3-29.7-20L1135.4,143.1z"/>
					</g>
					<g>
						<g>
							
								<rect x="1114.4" y="-64.3" transform="matrix(0.9813 -0.1927 0.1927 0.9813 34.479 226.8774)" fill="#929497" width="138.9" height="0.8"/>
						</g>
						<g>
							
								<rect x="1117" y="-50.8" transform="matrix(0.9813 -0.1926 0.1926 0.9813 31.9338 227.6085)" fill="#929497" width="138.9" height="0.8"/>
						</g>
						<g>
							
								<rect x="1119.7" y="-37.4" transform="matrix(0.9813 -0.1927 0.1927 0.9813 29.4021 228.3959)" fill="#929497" width="138.9" height="0.8"/>
						</g>
						<g>
							
								<rect x="1122.3" y="-24" transform="matrix(0.9813 -0.1927 0.1927 0.9813 26.8651 229.1595)" fill="#929497" width="138.9" height="0.8"/>
						</g>
						<g>
							
								<rect x="1125" y="-10.5" transform="matrix(0.9813 -0.1926 0.1926 0.9813 24.3231 229.9009)" fill="#929497" width="138.9" height="0.8"/>
						</g>
						<g>
							
								<rect x="1127.6" y="2.9" transform="matrix(0.9813 -0.1927 0.1927 0.9813 21.7882 230.6768)" fill="#929497" width="138.9" height="0.8"/>
						</g>
						<g>
							
								<rect x="1130.2" y="16.3" transform="matrix(0.9813 -0.1926 0.1926 0.9813 19.247 231.4199)" fill="#929497" width="138.9" height="0.8"/>
						</g>
						<g>
							
								<rect x="1132.9" y="29.8" transform="matrix(0.9813 -0.1927 0.1927 0.9813 16.7118 232.1957)" fill="#929497" width="138.9" height="0.8"/>
						</g>
						<g>
							
								<rect x="1135.5" y="43.2" transform="matrix(0.9813 -0.1926 0.1926 0.9813 14.1684 232.923)" fill="#929497" width="138.9" height="0.8"/>
						</g>
						<g>
							
								<rect x="1138.1" y="56.6" transform="matrix(0.9813 -0.1926 0.1926 0.9813 11.6336 233.7002)" fill="#929497" width="138.9" height="0.8"/>
						</g>
						<g>
							
								<rect x="1140.8" y="70.1" transform="matrix(0.9813 -0.1926 0.1926 0.9813 9.0927 234.4407)" fill="#929497" width="138.9" height="0.8"/>
						</g>
						<g>
							
								<rect x="1143.4" y="83.5" transform="matrix(0.9813 -0.1926 0.1926 0.9813 6.5553 235.1998)" fill="#929497" width="138.9" height="0.8"/>
						</g>
						<g>
							
								<rect x="1146" y="96.9" transform="matrix(0.9813 -0.1927 0.1927 0.9813 4.0214 235.9961)" fill="#929497" width="138.9" height="0.8"/>
						</g>
						<g>
							
								<rect x="1148.7" y="110.4" transform="matrix(0.9813 -0.1927 0.1927 0.9813 1.4827 236.7522)" fill="#929497" width="138.9" height="0.8"/>
						</g>
						<g>
							
								<rect x="1151.3" y="123.8" transform="matrix(0.9813 -0.1927 0.1927 0.9813 -1.055 237.5125)" fill="#929497" width="138.9" height="0.8"/>
						</g>
						<g>
							
								<rect x="1154" y="137.2" transform="matrix(0.9813 -0.1926 0.1926 0.9813 -3.5946 238.256)" fill="#929497" width="138.9" height="0.8"/>
						</g>
						<g>
							
								<rect x="1156.6" y="150.6" transform="matrix(0.9813 -0.1927 0.1927 0.9813 -6.1316 239.0328)" fill="#929497" width="138.9" height="0.8"/>
						</g>
					</g>
					<g>
						<path fill="#17384E" d="M1257-82.9c0.3,1.8,2.1,2.9,3.8,2.6c1.8-0.4,2.9-2.1,2.6-3.8c-0.3-1.8-2.1-2.9-3.8-2.6
							C1257.8-86.4,1256.7-84.6,1257-82.9z"/>
						<path fill="#17384E" d="M1261.4-60.5c0.3,1.8,2.1,2.9,3.8,2.6c1.8-0.3,2.9-2.1,2.6-3.8c-0.3-1.8-2.1-2.9-3.8-2.6
							C1262.2-64,1261.1-62.3,1261.4-60.5z"/>
						<path fill="#17384E" d="M1265.8-38.1c0.3,1.8,2.1,2.9,3.8,2.6c1.8-0.3,2.9-2.1,2.6-3.8c-0.3-1.8-2.1-2.9-3.8-2.6
							C1266.6-41.6,1265.5-39.9,1265.8-38.1z"/>
						<path fill="#17384E" d="M1270.2-15.7c0.3,1.8,2.1,2.9,3.8,2.6c1.8-0.3,2.9-2.1,2.6-3.8c-0.3-1.8-2.1-2.9-3.8-2.6
							C1271-19.2,1269.9-17.5,1270.2-15.7z"/>
						<path fill="#17384E" d="M1274.6,6.7c0.3,1.8,2.1,2.9,3.8,2.6c1.8-0.3,2.9-2.1,2.6-3.8c-0.3-1.8-2.1-2.9-3.8-2.6
							C1275.4,3.2,1274.3,4.9,1274.6,6.7z"/>
						<path fill="#17384E" d="M1279,29.1c0.3,1.8,2.1,2.9,3.8,2.6c1.8-0.4,2.9-2.1,2.6-3.8c-0.3-1.8-2.1-2.9-3.8-2.6
							C1279.8,25.6,1278.6,27.3,1279,29.1z"/>
						<path fill="#17384E" d="M1283.4,51.4c0.3,1.8,2.1,2.9,3.8,2.6c1.8-0.3,2.9-2.1,2.6-3.8c-0.3-1.8-2.1-2.9-3.8-2.6
							C1284.2,48,1283,49.7,1283.4,51.4z"/>
						<path fill="#17384E" d="M1287.8,73.8c0.3,1.8,2.1,2.9,3.8,2.6c1.8-0.3,2.9-2.1,2.6-3.8c-0.3-1.8-2.1-2.9-3.8-2.6
							C1288.6,70.3,1287.4,72.1,1287.8,73.8z"/>
						<path fill="#17384E" d="M1292.2,96.2c0.3,1.8,2.1,2.9,3.8,2.6c1.8-0.3,2.9-2.1,2.6-3.8c-0.3-1.8-2.1-2.9-3.8-2.6
							C1293,92.7,1291.8,94.4,1292.2,96.2z"/>
						<path fill="#17384E" d="M1296.6,118.6c0.3,1.8,2.1,2.9,3.8,2.6c1.8-0.3,2.9-2.1,2.6-3.8c-0.3-1.8-2.1-2.9-3.8-2.6
							C1297.4,115.1,1296.2,116.8,1296.6,118.6z"/>
						<path fill="#17384E" d="M1301,141c0.3,1.8,2.1,2.9,3.8,2.6c1.8-0.3,2.9-2.1,2.6-3.8c-0.3-1.8-2.1-2.9-3.8-2.6
							C1301.8,137.5,1300.6,139.2,1301,141z"/>
					</g>
					
						<rect x="1139.6" y="-80.4" transform="matrix(0.9813 -0.1925 0.1925 0.9813 10.6358 221.0517)" fill="#CC2943" width="6.5" height="272.4"/>
					<g>
						<path fill="#17384E" d="M1090.9-75.8l7.3-1.4l163.1-32l0,0l0,0l7.3-1.4h0l0,0l52.5,267.3l-7.3,1.4l-163.1,32l-7.3,1.4
							c-5.8,1.1-11.3-2.6-12.5-8.4L1110.9,81l-8.3-42.2l-20.1-102.1C1081.4-69.1,1085.2-74.7,1090.9-75.8z"/>
						<path fill="#F4F5F5" d="M1134.9,140.2l-14.1-71.9l-1.1-5.8l-1.9-9.9l-1.1-5.8l-14.1-71.9l-3.1-15.7c-2.7-13.7,6.3-27,20-29.7
							l47.9-9.4l0,0l98.7-19.4l0,0l0,0l3.1,15.7l19,96.8l1.1,5.8l1.9,9.9l1.1,5.8l19,96.8l3.1,15.7l-146.6,28.7
							c-13.7,2.7-27-6.3-29.7-20L1134.9,140.2z"/>
					</g>
					<g>
						<g>
							
								<rect x="1114.4" y="-64.3" transform="matrix(0.9813 -0.1927 0.1927 0.9813 34.479 226.8774)" fill="#929497" width="138.9" height="0.8"/>
						</g>
						<g>
							
								<rect x="1117" y="-50.8" transform="matrix(0.9813 -0.1926 0.1926 0.9813 31.9338 227.6085)" fill="#929497" width="138.9" height="0.8"/>
						</g>
						<g>
							
								<rect x="1119.7" y="-37.4" transform="matrix(0.9813 -0.1927 0.1927 0.9813 29.4021 228.3959)" fill="#929497" width="138.9" height="0.8"/>
						</g>
						<g>
							
								<rect x="1122.3" y="-24" transform="matrix(0.9813 -0.1927 0.1927 0.9813 26.8651 229.1595)" fill="#929497" width="138.9" height="0.8"/>
						</g>
						<g>
							
								<rect x="1125" y="-10.5" transform="matrix(0.9813 -0.1926 0.1926 0.9813 24.3231 229.9009)" fill="#929497" width="138.9" height="0.8"/>
						</g>
						<g>
							
								<rect x="1127.6" y="2.9" transform="matrix(0.9813 -0.1927 0.1927 0.9813 21.7882 230.6768)" fill="#929497" width="138.9" height="0.8"/>
						</g>
						<g>
							
								<rect x="1130.2" y="16.3" transform="matrix(0.9813 -0.1926 0.1926 0.9813 19.247 231.4199)" fill="#929497" width="138.9" height="0.8"/>
						</g>
						<g>
							
								<rect x="1132.9" y="29.8" transform="matrix(0.9813 -0.1927 0.1927 0.9813 16.7118 232.1957)" fill="#929497" width="138.9" height="0.8"/>
						</g>
						<g>
							
								<rect x="1135.5" y="43.2" transform="matrix(0.9813 -0.1926 0.1926 0.9813 14.1684 232.923)" fill="#929497" width="138.9" height="0.8"/>
						</g>
						<g>
							
								<rect x="1138.1" y="56.6" transform="matrix(0.9813 -0.1926 0.1926 0.9813 11.6336 233.7002)" fill="#929497" width="138.9" height="0.8"/>
						</g>
						<g>
							
								<rect x="1140.8" y="70.1" transform="matrix(0.9813 -0.1926 0.1926 0.9813 9.0927 234.4407)" fill="#929497" width="138.9" height="0.8"/>
						</g>
						<g>
							
								<rect x="1143.4" y="83.5" transform="matrix(0.9813 -0.1926 0.1926 0.9813 6.5553 235.1998)" fill="#929497" width="138.9" height="0.8"/>
						</g>
						<g>
							
								<rect x="1146" y="96.9" transform="matrix(0.9813 -0.1927 0.1927 0.9813 4.0214 235.9961)" fill="#929497" width="138.9" height="0.8"/>
						</g>
						<g>
							
								<rect x="1148.7" y="110.4" transform="matrix(0.9813 -0.1927 0.1927 0.9813 1.4827 236.7522)" fill="#929497" width="138.9" height="0.8"/>
						</g>
						<g>
							
								<rect x="1151.3" y="123.8" transform="matrix(0.9813 -0.1927 0.1927 0.9813 -1.055 237.5125)" fill="#929497" width="138.9" height="0.8"/>
						</g>
						<g>
							
								<rect x="1154" y="137.2" transform="matrix(0.9813 -0.1926 0.1926 0.9813 -3.5946 238.256)" fill="#929497" width="138.9" height="0.8"/>
						</g>
						<g>
							
								<rect x="1156.6" y="150.6" transform="matrix(0.9813 -0.1927 0.1927 0.9813 -6.1316 239.0328)" fill="#929497" width="138.9" height="0.8"/>
						</g>
					</g>
					<g>
						<path fill="#17384E" d="M1257-82.9c0.3,1.8,2.1,2.9,3.8,2.6c1.8-0.4,2.9-2.1,2.6-3.8c-0.3-1.8-2.1-2.9-3.8-2.6
							C1257.8-86.4,1256.7-84.6,1257-82.9z"/>
						<path fill="#17384E" d="M1261.4-60.5c0.3,1.8,2.1,2.9,3.8,2.6c1.8-0.3,2.9-2.1,2.6-3.8c-0.3-1.8-2.1-2.9-3.8-2.6
							C1262.2-64,1261.1-62.3,1261.4-60.5z"/>
						<path fill="#17384E" d="M1265.8-38.1c0.3,1.8,2.1,2.9,3.8,2.6c1.8-0.3,2.9-2.1,2.6-3.8c-0.3-1.8-2.1-2.9-3.8-2.6
							C1266.6-41.6,1265.5-39.9,1265.8-38.1z"/>
						<path fill="#17384E" d="M1270.2-15.7c0.3,1.8,2.1,2.9,3.8,2.6c1.8-0.3,2.9-2.1,2.6-3.8c-0.3-1.8-2.1-2.9-3.8-2.6
							C1271-19.2,1269.9-17.5,1270.2-15.7z"/>
						<path fill="#17384E" d="M1274.6,6.7c0.3,1.8,2.1,2.9,3.8,2.6c1.8-0.3,2.9-2.1,2.6-3.8c-0.3-1.8-2.1-2.9-3.8-2.6
							C1275.4,3.2,1274.3,4.9,1274.6,6.7z"/>
						<path fill="#17384E" d="M1279,29.1c0.3,1.8,2.1,2.9,3.8,2.6c1.8-0.4,2.9-2.1,2.6-3.8c-0.3-1.8-2.1-2.9-3.8-2.6
							C1279.8,25.6,1278.6,27.3,1279,29.1z"/>
						<path fill="#17384E" d="M1283.4,51.4c0.3,1.8,2.1,2.9,3.8,2.6c1.8-0.3,2.9-2.1,2.6-3.8c-0.3-1.8-2.1-2.9-3.8-2.6
							C1284.2,48,1283,49.7,1283.4,51.4z"/>
						<path fill="#17384E" d="M1287.8,73.8c0.3,1.8,2.1,2.9,3.8,2.6c1.8-0.3,2.9-2.1,2.6-3.8c-0.3-1.8-2.1-2.9-3.8-2.6
							C1288.6,70.3,1287.4,72.1,1287.8,73.8z"/>
						<path fill="#17384E" d="M1292.2,96.2c0.3,1.8,2.1,2.9,3.8,2.6c1.8-0.3,2.9-2.1,2.6-3.8c-0.3-1.8-2.1-2.9-3.8-2.6
							C1293,92.7,1291.8,94.4,1292.2,96.2z"/>
						<path fill="#17384E" d="M1296.6,118.6c0.3,1.8,2.1,2.9,3.8,2.6c1.8-0.3,2.9-2.1,2.6-3.8c-0.3-1.8-2.1-2.9-3.8-2.6
							C1297.4,115.1,1296.2,116.8,1296.6,118.6z"/>
						<path fill="#17384E" d="M1301,141c0.3,1.8,2.1,2.9,3.8,2.6c1.8-0.3,2.9-2.1,2.6-3.8c-0.3-1.8-2.1-2.9-3.8-2.6
							C1301.8,137.5,1300.6,139.2,1301,141z"/>
					</g>
					<g>
						<path fill="#CC2943" d="M1295.9-89.3c-0.1,0-0.2,0-0.4,0c-15.4-1.9-34.6,6.8-34.8,6.9c-0.6,0.3-1.3,0-1.6-0.6
							c-0.3-0.6,0-1.3,0.6-1.6c0.8-0.4,20-9,36.1-7.1c0.7,0.1,1.1,0.7,1.1,1.3C1296.8-89.8,1296.4-89.4,1295.9-89.3z"/>
					</g>
					<g>
						<path fill="#CC2943" d="M1300.3-66.7c-0.1,0-0.2,0-0.4,0c-15.4-1.9-34.6,6.8-34.8,6.9c-0.6,0.3-1.3,0-1.6-0.6
							c-0.3-0.6,0-1.3,0.6-1.6c0.8-0.4,20-9,36.1-7.1c0.7,0.1,1.1,0.7,1.1,1.3C1301.2-67.2,1300.8-66.8,1300.3-66.7z"/>
					</g>
					<g>
						<path fill="#CC2943" d="M1304.7-44.3c-0.1,0-0.2,0-0.4,0c-15.4-1.9-34.6,6.8-34.8,6.9c-0.6,0.3-1.3,0-1.6-0.6
							c-0.3-0.6,0-1.3,0.6-1.6c0.8-0.4,20-9,36.1-7.1c0.7,0.1,1.1,0.7,1.1,1.3C1305.6-44.8,1305.2-44.4,1304.7-44.3z"/>
					</g>
					<g>
						<path fill="#CC2943" d="M1309.1-21.8c-0.1,0-0.2,0-0.4,0c-15.4-1.9-34.6,6.8-34.8,6.9c-0.6,0.3-1.3,0-1.6-0.6
							c-0.3-0.6,0-1.3,0.6-1.6c0.8-0.4,20-9,36.1-7.1c0.7,0.1,1.1,0.7,1.1,1.3C1310-22.3,1309.6-21.9,1309.1-21.8z"/>
					</g>
					<g>
						<path fill="#CC2943" d="M1313.5,0.4c-0.1,0-0.2,0-0.4,0c-15.4-1.9-34.6,6.8-34.8,6.9c-0.6,0.3-1.3,0-1.6-0.6
							c-0.3-0.6,0-1.3,0.6-1.6c0.8-0.4,20-9,36.1-7.1c0.7,0.1,1.1,0.7,1.1,1.3C1314.4-0.1,1314,0.3,1313.5,0.4z"/>
					</g>
					<g>
						<path fill="#CC2943" d="M1317.9,23c-0.1,0-0.2,0-0.4,0c-15.4-1.9-34.6,6.8-34.8,6.9c-0.6,0.3-1.3,0-1.6-0.6
							c-0.3-0.6,0-1.3,0.6-1.6c0.8-0.4,20-9,36.1-7.1c0.7,0.1,1.1,0.7,1.1,1.3C1318.8,22.5,1318.4,22.9,1317.9,23z"/>
					</g>
					<g>
						<path fill="#CC2943" d="M1322.3,45.2c-0.1,0-0.2,0-0.4,0c-15.4-1.9-34.6,6.8-34.8,6.9c-0.6,0.3-1.3,0-1.6-0.6
							c-0.3-0.6,0-1.3,0.6-1.6c0.8-0.4,20-9,36.1-7.1c0.7,0.1,1.1,0.7,1.1,1.3C1323.2,44.7,1322.8,45.1,1322.3,45.2z"/>
					</g>
					<g>
						<path fill="#CC2943" d="M1326.7,67.7c-0.1,0-0.2,0-0.4,0c-15.4-1.9-34.6,6.8-34.8,6.9c-0.6,0.3-1.3,0-1.6-0.6
							c-0.3-0.6,0-1.3,0.6-1.6c0.8-0.4,20-9,36.1-7.1c0.7,0.1,1.1,0.7,1.1,1.3C1327.6,67.2,1327.2,67.6,1326.7,67.7z"/>
					</g>
					<g>
						<path fill="#CC2943" d="M1331.1,90c-0.1,0-0.2,0-0.4,0c-15.4-1.9-34.6,6.8-34.8,6.9c-0.6,0.3-1.3,0-1.6-0.6
							c-0.3-0.6,0-1.3,0.6-1.6c0.8-0.4,20-9,36.1-7.1c0.7,0.1,1.1,0.7,1.1,1.3C1332,89.5,1331.6,89.9,1331.1,90z"/>
					</g>
					<g>
						<path fill="#CC2943" d="M1335.5,112.5c-0.1,0-0.2,0-0.4,0c-15.4-1.9-34.6,6.8-34.8,6.9c-0.6,0.3-1.3,0-1.6-0.6
							c-0.3-0.6,0-1.3,0.6-1.6c0.8-0.4,20-9,36.1-7.1c0.7,0.1,1.1,0.7,1.1,1.3C1336.4,112,1336,112.4,1335.5,112.5z"/>
					</g>
					<g>
						<path fill="#CC2943" d="M1339.9,134.7c-0.1,0-0.2,0-0.4,0c-15.4-1.9-34.6,6.8-34.8,6.9c-0.6,0.3-1.3,0-1.6-0.6
							c-0.3-0.6,0-1.3,0.6-1.6c0.8-0.4,20-9,36.1-7.1c0.7,0.1,1.1,0.7,1.1,1.3C1340.8,134.2,1340.4,134.6,1339.9,134.7z"/>
					</g>
				</g>
				<g>
					<polygon fill="#F4E0C4" points="1146.3,93.2 1155.1,77.8 1148.3,75.3 1141.1,75.5 1144.6,92.9 					"/>
					<polygon fill="#17384E" points="1144.6,92.9 1144.9,96.6 1146.3,93.2 					"/>
					<path fill="#61C3C0" d="M1182.6-137.6c-3.9-0.6-7.5,2-8.1,5.9l-33.4,207.3l14,2.3l33.4-207.3
						C1189.1-133.4,1186.5-137,1182.6-137.6z"/>
					<polygon fill="#5DB6B3" points="1176,-96.3 1148.1,76.7 1155.1,77.8 1183.1,-95.9 					"/>
					<path fill="#D0D2D3" d="M1182.6-137.6c-3.9-0.6-7.5,2-8.1,5.9l-1.1,6.8l14,2.3l1.1-6.8C1189.1-133.4,1186.5-137,1182.6-137.6z"
						/>
					
						<rect x="1159.9" y="-119.4" transform="matrix(0.1589 -0.9873 0.9873 0.1589 1102.1274 1069.1075)" fill="#17384E" width="37.3" height="14.2"/>
					
						<rect x="1175.2" y="-103.4" transform="matrix(0.1589 -0.9873 0.9873 0.1589 1084.2009 1080.0188)" fill="#61C3C0" width="1.6" height="14.2"/>
				</g>
			</g>
			<g>
				
					<rect x="953.4" y="398.9" transform="matrix(0.2086 -0.978 0.978 0.2086 389.3946 1660.5471)" fill="#FFFFFF" width="534.8" height="381.6"/>
				<polygon fill="#58595B" points="1407.3,473.7 1100.4,408.2 1100.7,406.7 1407.7,472.2 				"/>
				<polygon fill="#58595B" points="1404.5,487.2 1097.5,421.7 1097.8,420.2 1404.8,485.7 				"/>
				<polygon fill="#58595B" points="1401.7,500.1 1094.7,434.6 1095,433.2 1402,498.7 				"/>
				<polygon fill="#58595B" points="1398.8,513.6 1091.9,448.1 1092.2,446.6 1399.1,512.1 				"/>
				
					<rect x="1241.9" y="336.5" transform="matrix(0.2086 -0.978 0.978 0.2086 500.7925 1605.8132)" fill="#58595B" width="1.5" height="313.9"/>
				
					<rect x="1239" y="350" transform="matrix(0.2086 -0.978 0.978 0.2086 485.3423 1613.6697)" fill="#58595B" width="1.5" height="313.9"/>
				
					<rect x="1236.1" y="363.9" transform="matrix(0.2086 -0.978 0.978 0.2086 469.3881 1621.7467)" fill="#58595B" width="1.5" height="313.9"/>
				<polygon fill="#58595B" points="1387.3,567.8 1080.3,502.3 1080.6,500.8 1387.6,566.3 				"/>
				<polygon fill="#58595B" points="1384.3,581.8 1077.3,516.3 1077.6,514.8 1384.6,580.3 				"/>
				<polygon fill="#58595B" points="1381.4,595.3 1074.4,529.8 1074.7,528.3 1381.7,593.8 				"/>
				
					<rect x="1224.4" y="418.8" transform="matrix(0.2086 -0.978 0.978 0.2086 406.4418 1653.755)" fill="#58595B" width="1.5" height="313.9"/>
				<polygon fill="#58595B" points="1375.6,622.7 1068.6,557.2 1068.9,555.7 1375.9,621.2 				"/>
				
					<rect x="1146.4" y="509.8" transform="matrix(0.2086 -0.978 0.978 0.2086 326.4603 1592.2933)" fill="#58595B" width="1.5" height="169.2"/>
				
					<rect x="1143.8" y="522.2" transform="matrix(0.2086 -0.978 0.978 0.2086 312.2455 1599.5356)" fill="#58595B" width="1.5" height="169.2"/>
				<polygon fill="#58595B" points="1224.6,636.7 1059.2,601.4 1059.5,599.9 1225,635.2 				"/>
				<polygon fill="#58595B" points="1222,649.1 1056.5,613.8 1056.8,612.3 1222.3,647.6 				"/>
				
					<rect x="1135.8" y="559.5" transform="matrix(0.2086 -0.978 0.978 0.2086 269.5278 1621.2294)" fill="#58595B" width="1.5" height="169.2"/>
				
					<rect x="1133.2" y="571.9" transform="matrix(0.2087 -0.978 0.978 0.2087 255.2798 1628.4451)" fill="#58595B" width="1.5" height="169.2"/>
				
					<rect x="1130.7" y="583.3" transform="matrix(0.2086 -0.978 0.978 0.2086 242.1917 1635.1682)" fill="#58595B" width="1.5" height="169.2"/>
				<polygon fill="#58595B" points="1211.4,698.7 1045.9,663.4 1046.2,662 1211.7,697.3 				"/>
				<polygon fill="#58595B" points="1208.7,711.3 1043.2,676 1043.5,674.6 1209,709.9 				"/>
				<polygon fill="#58595B" points="1206.1,723.7 1040.6,688.4 1040.9,687 1206.4,722.3 				"/>
				<polygon fill="#58595B" points="1203.6,735.2 1038.1,699.9 1038.4,698.4 1203.9,733.7 				"/>
				
					<rect x="1117.6" y="644.6" transform="matrix(0.2087 -0.978 0.978 0.2087 171.875 1670.8312)" fill="#58595B" width="1.5" height="169.2"/>
				
					<rect x="1115" y="657" transform="matrix(0.2087 -0.978 0.978 0.2087 157.7155 1678.0273)" fill="#58595B" width="1.5" height="169.2"/>
				<polygon fill="#58595B" points="1195.9,771.4 1030.4,736.1 1030.7,734.6 1196.2,769.9 				"/>
				
					<rect x="1109.9" y="680.8" transform="matrix(0.2086 -0.978 0.978 0.2086 130.365 1691.9547)" fill="#58595B" width="1.5" height="169.2"/>
				<polygon fill="#58595B" points="1190.6,796.2 1025.1,760.9 1025.4,759.4 1190.9,794.7 				"/>
				
					<rect x="1104.6" y="705.6" transform="matrix(0.2086 -0.978 0.978 0.2086 101.9555 1706.4049)" fill="#58595B" width="1.5" height="169.2"/>
				
					<rect x="1259.3" y="213.5" transform="matrix(0.2086 -0.978 0.978 0.2086 641.8112 1534.1367)" fill="#58595B" width="19.1" height="313.9"/>
			</g>
			<g>
				<path fill="#FFFCFA" d="M432.7-327.4v20c0,3.4,1.2,6.6,3.5,9.1l7.8,8.7v13.9v8.8l12.6-12.6c0,0,12.6,0,17.6-1.3
					c5-1.3,11.3-7.6,11.3-7.6v-16.4l17.6-7.6v-21.4l-10.1-15.1h-13.9v-8.8l-20.1,16.4l-10.1-2.5l-3.8,0.3c-4.2,0.3-7.9,3.1-9.3,7.1
					L432.7-327.4z"/>
				<path fill="#E0E0E0" d="M445.7-317.2l1.6,5.6v5.6l3.8,5.3l-2.7,6.9l5.5-7.2l-4.1-5.6c0,0-0.3-5.3,0-6.3c0.3-0.9,4.1-6.1,4.1-6.1
					l-4.1,3.9L445.7-317.2z"/>
				<polygon fill="#E0E0E0" points="472,-338.5 483.6,-341.3 495.2,-336.3 499.3,-321.5 492.7,-335 482.3,-338.5 477.9,-331.4 
					478.2,-338.2 				"/>
				<polygon fill="#E0E0E0" points="472,-286.4 476.4,-289.9 478.9,-297.7 478.9,-288.6 				"/>
				<polygon fill="#E0E0E0" points="449.8,-338.8 443.1,-338.8 440,-335.7 444.9,-337.2 449.8,-335.7 455.7,-337.2 449.8,-337.2 
									"/>
			</g>
			<g>
				<path fill="#FFFCFA" d="M874.3-389.4L858-377.8c-2.7,2-4.6,4.9-5.4,8.1l-2.5,11.4l-11.3,8.1l-7.2,5.1l17.6,2.9
					c0,0,7.3,10.2,11.3,13.6c4,3.4,12.7,4.8,12.7,4.8l13.3-9.5l16.4,9.9l17.4-12.5l6.4-17l-8.1-11.3l7.2-5.1l-25-6.8l-3.8-9.7
					l-2.4-2.9c-2.7-3.3-7.1-4.6-11.2-3.4L874.3-389.4z"/>
				<path fill="#E0E0E0" d="M873.5-372.9l-3.7,4.6l-4.6,3.3l-2.1,6.2L856-357l9.1,0.3l2.2-6.6c0,0,4.2-3.4,5.1-3.7
					c0.9-0.3,7.3-0.2,7.3-0.2l-5.5-1.1L873.5-372.9z"/>
				<polygon fill="#E0E0E0" points="906.2,-364 915.2,-356.2 917.9,-343.9 908.3,-332 915.4,-345.2 912.2,-355.6 903.9,-355.1 
					909.6,-358.7 				"/>
				<polygon fill="#E0E0E0" points="863.8,-333.7 869.2,-332.1 877.1,-334.6 869.7,-329.3 				"/>
				<polygon fill="#E0E0E0" points="893.5,-382.2 889.6,-387.7 885.2,-388.4 889.4,-385.3 891,-380.4 895.7,-376.5 892.2,-381.3 
									"/>
			</g>
			<g>
				<path fill="#FFFCFA" d="M512.1,555.2l8.2,20.9c1.4,3.5,4,6.4,7.4,8.1l11.8,5.9l5.7,14.5l3.6,9.2l8-18.4c0,0,13.2-5.2,17.9-8.6
					c4.8-3.4,8.8-12.6,8.8-12.6l-6.7-17.1l15.4-15.2l-8.8-22.4L566.6,508l-14.5,5.7l-3.6-9.2l-14.4,25.4l-11.6,1.5l-3.9,1.9
					c-4.3,2.1-7,6.5-6.9,11.3L512.1,555.2z"/>
				<path fill="#E0E0E0" d="M529.9,560.6l4,5.3l2.3,5.9l6.1,4l0,8.3l2.8-9.8l-6.6-4.2c0,0-2.5-5.5-2.6-6.6c-0.1-1.1,1.8-8,1.8-8
					l-2.7,5.7L529.9,560.6z"/>
				<polygon fill="#E0E0E0" points="548.6,527.4 559.6,519.7 573.9,520.2 584.2,534 571.8,522.5 559.5,523.2 557.8,532.4 
					555.3,525.2 				"/>
				<polygon fill="#E0E0E0" points="570,582 573.2,576.6 572.6,567.3 576.4,576.9 				"/>
				<polygon fill="#E0E0E0" points="525.3,536.2 518.3,539 516.3,543.5 520.8,539.9 526.6,539.5 532.1,535.5 526,537.9 				"/>
			</g>
			<g>
				<path fill="#FFFCFA" d="M646,527.1l-15,6.3c-2.5,1.1-4.6,3-5.7,5.5l-4.1,8.6l-10.4,4.3l-6.6,2.8l13.4,5.5c0,0,4,9.4,6.5,12.8
					c2.5,3.4,9.2,6.1,9.2,6.1l12.3-5.1l11.2,10.8l16.1-6.7l8.2-12.3l-4.3-10.4l6.6-2.8l-18.6-10l-1.3-8.3l-1.4-2.8
					c-1.6-3.1-4.8-4.9-8.3-4.8L646,527.1z"/>
				<path fill="#E0E0E0" d="M642.4,540.1l-3.7,3l-4.2,1.8l-2.8,4.5l-6,0.2l7.1,1.9l3-4.8c0,0,3.9-1.9,4.7-2c0.8-0.1,5.8,1.2,5.8,1.2
					l-4.2-1.8L642.4,540.1z"/>
				<polygon fill="#E0E0E0" points="666.7,553 672.4,560.9 672.3,571.1 662.5,578.8 670.6,569.6 669.9,560.8 663.2,559.7 
					668.4,557.8 				"/>
				<polygon fill="#E0E0E0" points="627.6,569.4 631.6,571.6 638.2,571 631.4,573.9 				"/>
				<polygon fill="#E0E0E0" points="659.9,536.3 657.8,531.3 654.5,529.9 657.2,533.1 657.6,537.3 660.6,541.2 658.8,536.8 				"/>
			</g>
			<g>
				<path fill="#FFFCFA" d="M919.7,536.9l-14.9-6.5c-2.5-1.1-5.3-1.2-7.9-0.4l-9,3l-10.3-4.5l-6.6-2.9l5.3,13.5
					c0,0-4.1,9.4-4.8,13.5c-0.7,4.2,1.9,10.9,1.9,10.9l12.2,5.3l-0.1,15.6l16,7l14.5-2.6l4.5-10.3l6.6,2.9l-5.7-20.3l5.1-6.7l1-2.9
					c1.1-3.3,0.2-6.9-2.3-9.3L919.7,536.9z"/>
				<path fill="#E0E0E0" d="M907.8,543.3l-4.7-0.7l-4.2-1.8l-5.2,1.1l-4.3-4.2l3.6,6.4l5.5-1.2c0,0,4.1,1.5,4.7,2
					c0.6,0.5,3.2,5,3.2,5l-1.6-4.3L907.8,543.3z"/>
				<polygon fill="#E0E0E0" points="915.2,569.8 913.5,579.4 906,586.4 893.7,584.6 905.9,584.1 911.9,577.5 908,571.9 912.9,574.4 
									"/>
				<polygon fill="#E0E0E0" points="876.4,552.9 877.5,557.3 882.6,561.7 875.8,558.7 				"/>
				<polygon fill="#E0E0E0" points="922.6,553.4 924.8,548.4 923.5,545 923.1,549.2 920.3,552.3 919.6,557.2 921.5,552.9 				"/>
			</g>
			<g>
				<path fill="#FFFCFA" d="M1044.9,261.3l-18.6-8.7c-3.1-1.5-6.7-1.7-10-0.7l-11.5,3.5l-12.9-6l-8.2-3.8l6.2,17.2
					c0,0-5.5,11.7-6.5,17s2.1,13.8,2.1,13.8l15.2,7.1l-0.6,19.7l19.9,9.3l18.4-2.8l6-12.9l8.2,3.8l-6.5-25.9l6.7-8.3l1.4-3.7
					c1.5-4.1,0.5-8.7-2.6-11.8L1044.9,261.3z"/>
				<path fill="#E0E0E0" d="M1029.7,268.9l-5.9-1l-5.3-2.5l-6.6,1.2l-5.3-5.5l4.3,8.3l7-1.3c0,0,5.1,2,5.8,2.7
					c0.7,0.7,3.9,6.4,3.9,6.4l-1.8-5.5L1029.7,268.9z"/>
				<polygon fill="#E0E0E0" points="1038.2,302.6 1035.8,314.7 1026,323.3 1010.5,320.7 1025.9,320.4 1033.7,312.3 1029,305.1 
					1035.2,308.3 				"/>
				<polygon fill="#E0E0E0" points="989.7,279.9 991,285.5 997.2,291.3 988.7,287.3 				"/>
				<polygon fill="#E0E0E0" points="1048.1,282.1 1051,275.9 1049.5,271.6 1048.8,276.9 1045.2,280.8 1044.1,286.9 1046.7,281.5 
									"/>
			</g>
			<g>
				<path fill="#FFFCFA" d="M257.9-75.9l16.6,9.4c2.8,1.6,6.1,2.1,9.2,1.4l11-2.4l11.6,6.5l-2-6.8l4.7-5.4c0,0,5.9-10.5,7.2-15.3
					c1.3-4.8-1-13-1-13l-13.7-7.7l2-18.3l-17.9-10.1l-17.3,1.3l-6.5,11.6l0.9,11l-4,9.4l-6.8,7.2l-1.5,3.3
					c-1.7,3.7-1.1,8.1,1.5,11.1L257.9-75.9z"/>
				<path fill="#E0E0E0" d="M272.5-81.9l5.5,1.3l4.7,2.7l6.2-0.6l4.5,5.5l-3.4-8l-6.6,0.7c0,0-4.6-2.2-5.2-3
					c-0.6-0.7-3.1-6.3-3.1-6.3l1.3,5.2L272.5-81.9z"/>
				<polygon fill="#E0E0E0" points="267.1,-113.8 270.2,-124.8 279.8,-132.2 294.1,-128.6 279.7,-129.5 272,-122.5 275.8,-115.5 
					270.3,-118.9 				"/>
				<polygon fill="#E0E0E0" points="310.5,-89.3 309.7,-94.6 304.4,-100.4 311.9,-96.1 				"/>
				<polygon fill="#E0E0E0" points="256.4,-95.5 253.2,-89.9 254.4,-85.8 255.4,-90.6 259,-94 260.4,-99.6 257.7,-94.8 				"/>
			</g>
			<g>
				<path fill="#FFFCFA" d="M197.7-214.3l-21.4-7.5c-3.6-1.3-7.6-1.1-11.1,0.3l-12.3,5.2l-14.9-5.2l3.7,7.6l-4.4,7.4
					c0,0-4.7,13.5-5.2,19.4c-0.5,5.9,3.9,15,3.9,15l17.6,6.1l1.5,21.8l23,8l20-5.2l5.2-14.9l-3.3-12.6l2.7-11.8l6.5-9.9l1.1-4.2
					c1.2-4.7-0.4-9.7-4.1-12.7L197.7-214.3z"/>
				<path fill="#E0E0E0" d="M181.9-204.2l-6.7-0.4l-6.1-2.1l-7.1,2l-6.4-5.5l5.7,8.6l7.6-2.3c0,0,5.9,1.7,6.7,2.3
					c0.9,0.7,5,6.7,5,6.7l-2.6-5.8L181.9-204.2z"/>
				<polygon fill="#E0E0E0" points="195,-168 193.7,-154.4 183.9,-143.8 166.5,-145 183.5,-147 191.1,-156.9 185.1,-164.2 
					192.3,-161.4 				"/>
				<polygon fill="#E0E0E0" points="139,-187.5 141.1,-181.5 148.5,-175.8 138.8,-179.2 				"/>
				<polygon fill="#E0E0E0" points="203.6,-191.7 206.1,-198.9 203.9,-203.4 203.8,-197.6 200.2,-192.9 199.7,-186 201.9,-192.3 
									"/>
			</g>
			<g>
				<path fill="#FFFCFA" d="M825.4-345.2l-3.7-22.4c-0.6-3.8-2.6-7.2-5.6-9.6l-10.4-8.3l-2.5-15.6l-4.9,6.9l-8.6-0.3
					c0,0-14.1,2.3-19.6,4.6c-5.4,2.3-11.3,10.6-11.3,10.6l3,18.4l-18.4,11.7l3.9,24l14.1,15.1l15.6-2.5l9.5-8.9l11.7-3.2l11.8,1
					l4.2-1c4.7-1.1,8.3-4.9,9.2-9.7L825.4-345.2z"/>
				<path fill="#E0E0E0" d="M808.9-354.2l-2.8-6.1l-1-6.3l-5.2-5.3l1.7-8.2l-4.8,9.1l5.6,5.6c0,0,1.3,5.9,1.2,7
					c-0.2,1.1-3.5,7.6-3.5,7.6l3.9-5.1L808.9-354.2z"/>
				<polygon fill="#E0E0E0" points="783.4,-325.5 770.9,-320.2 756.9,-323.7 749.6,-339.5 759.5,-325.5 771.8,-323.6 775.4,-332.3 
					776.3,-324.7 				"/>
				<polygon fill="#E0E0E0" points="773.8,-384 769.5,-379.3 768.2,-370 766.5,-380.2 				"/>
				<polygon fill="#E0E0E0" points="808.3,-329.2 815.9,-330.4 818.8,-334.5 813.6,-331.8 807.8,-332.7 801.5,-329.9 808,-330.9 
									"/>
			</g>
			<g>
				<path fill="#FFFCFA" d="M1071.6,228.2l14.8-12.1c2.5-2,4.2-4.9,4.7-8.1l1.7-11.1l10.3-8.4l-7.1-0.7l-3.3-6.4
					c0,0-7.6-9.4-11.6-12.3c-4-3-12.5-3.9-12.5-3.9l-12.2,9.9l-16.3-8.5l-15.9,12.9l-5.1,16.6l8.4,10.3l10.5,3.2l7.3,7.2l4.2,9
					l2.5,2.6c2.8,3,7.1,4,10.9,2.6L1071.6,228.2z"/>
				<path fill="#E0E0E0" d="M1071.3,212.4l3.2-4.6l4.2-3.4l1.7-6l6.7-2.2l-8.7,0.3l-1.7,6.4c0,0-3.8,3.5-4.7,3.8
					c-0.9,0.3-7,0.6-7,0.6l5.3,0.7L1071.3,212.4z"/>
				<polygon fill="#E0E0E0" points="1039.6,205.8 1030.5,198.8 1027.2,187.2 1035.7,175.2 1029.7,188.3 1033.3,198.1 1041.2,197.1 
					1036,200.9 				"/>
				<polygon fill="#E0E0E0" points="1078.3,174.3 1073.1,173.1 1065.7,176 1072.5,170.5 				"/>
				<polygon fill="#E0E0E0" points="1052.8,222.4 1056.8,227.4 1061,227.8 1056.9,225.1 1055.1,220.5 1050.4,217.1 1053.9,221.5 
									"/>
			</g>
			<g>
				<path fill="#FFFCFA" d="M1110.7-164.7l-1.5-15.2c-0.3-2.6-1.4-4.9-3.3-6.7l-6.6-6l-1-10.5l-3.6,4.4l-5.7-0.6
					c0,0-9.6,0.9-13.3,2.3c-3.7,1.3-8.1,6.6-8.1,6.6l1.2,12.5l-12.9,7.1l1.6,16.3l8.8,10.8l10.5-1l6.8-5.6l8-1.7l7.9,1.2l2.9-0.5
					c3.2-0.6,5.8-3,6.6-6.1L1110.7-164.7z"/>
				<path fill="#E0E0E0" d="M1100.1-171.5l-1.6-4.2l-0.4-4.3l-3.3-3.8l1.5-5.5l-3.6,5.9l3.5,4c0,0,0.6,4,0.5,4.8
					c-0.2,0.7-2.7,4.9-2.7,4.9l2.8-3.3L1100.1-171.5z"/>
				<polygon fill="#E0E0E0" points="1081.7,-153.3 1073,-150.3 1063.8,-153.2 1059.6,-164.1 1065.6,-154.4 1073.8,-152.5 
					1076.6,-158.2 1076.9,-153 				"/>
				<polygon fill="#E0E0E0" points="1077.8,-192.9 1074.7,-190 1073.4,-183.8 1072.7,-190.8 				"/>
				<polygon fill="#E0E0E0" points="1098.6,-154.7 1103.7,-155.2 1105.8,-157.8 1102.2,-156.3 1098.3,-157.1 1094,-155.5 
					1098.4,-155.9 				"/>
			</g>
			<g>
				<path fill="#CC2943" d="M220.9,345.6l101.4,3.1c0,0,29.4,0.4,45.1,13l21.2,15.8c0,0,7.9,6.1,6.1,12.3c0,0-4.5,6.9-15.4-4.9
					l-19.9-18.4c0,0-12.1-9-30.6-10.2c0,0-67.7-6.3-117.3,7.6C211.5,364.1,208,351.4,220.9,345.6z"/>
				<path fill="#CC2943" d="M376.8,332l-99.3,20.7c0,0-28.9,5.5-42.1,20.6l-18.2,19.3c0,0-6.7,7.3-3.8,13.2c0,0,5.6,6,14.3-7.5
					l16.4-21.6c0,0,10.4-11,28.4-15.4c0,0,65.6-17.9,116.8-12.9C389.2,348.5,390.5,335.4,376.8,332z"/>
				<path opacity="0.49" fill="#E8E7E7" d="M278.8,352.2c0,0-6.8-5.3-29.5-2.3c-22.7,3-26.6,7.9-27.3,14.5
					c-0.8,6.7,1.7,31.4,15.7,33.8c0,0,25.7,2.1,35.1-7.7c9.4-9.8,9.5-26.5,9.9-29.7C283,357.6,281.2,353.9,278.8,352.2z"/>
				<path opacity="0.49" fill="#E8E7E7" d="M319.2,347.5c0,0,5.9-6.7,29.5-8c23.6-1.3,28.4,2.9,30.5,9.5c2,6.6,4.3,32.2-9.5,37.3
					c0,0-25.6,7.1-37-1.1c-11.4-8.1-14.7-25-15.7-28.3C316,353.8,317.1,349.7,319.2,347.5z"/>
				<path fill="#17384E" d="M391.3,334.5c-0.5-3.8-3.3-3.9-3.3-3.9c-49.3-5.7-70,4.1-76.5,5.5c-6,1.3-12.6,2.1-13.6,2.2
					c-0.9,0.1-7.6,0.6-13.8,0.4c-6.6-0.2-28.8-5.9-76.1,8.8c0,0-2.7,0.6-2.5,4.4l0.9,14.9c0,0,0.9,3.8,3.7,4.4
					c0,0,7.1,24.6,14.7,31.4c7.6,6.8,23.8,5.3,34.4,3.2c0,0,17-4.1,21.6-9.7c4.6-5.6,8.2-13.8,13.5-40.4c0,0,0.4-4.2,4.9-4.7l0,0
					l0,0c4.5-0.3,5.7,3.7,5.7,3.7c10.1,25.2,15.2,32.4,20.8,37.2c5.5,4.7,23,5.6,23,5.6c10.8,0.1,27-1.4,33.2-9.5
					c6.2-8.1,8.6-33.6,8.6-33.6c2.6-1.2,2.8-5,2.8-5L391.3,334.5z M282.7,360.9c-0.3,3.3-0.5,19.9-9.9,29.7
					c-9.4,9.8-35.1,7.7-35.1,7.7c-14-2.4-16.5-27.1-15.7-33.8c0.8-6.7,4.6-11.5,27.3-14.5c22.7-3,29.5,2.3,29.5,2.3
					C281.2,353.9,283,357.6,282.7,360.9z M369.7,386.3c0,0-25.6,7.1-37-1.1c-11.4-8.1-14.7-25-15.7-28.3c-1-3.3,0.1-7.3,2.2-9.5
					c0,0,5.9-6.7,29.5-8c23.6-1.3,28.4,2.9,30.5,9.5C381.2,355.7,383.4,381.2,369.7,386.3z"/>
			</g>
		</g>
	</g>
</g>
<g id="Layer_3">
	<g>
	</g>
	<g>
	</g>
	<g>
	</g>
	<g>
	</g>
	<g>
	</g>
	<g>
	</g>
</g>
</svg>
