<?xml version="1.0" encoding="utf-8"?>
<!-- Generator: Adobe Illustrator 22.0.1, SVG Export Plug-In . SVG Version: 6.00 Build 0)  -->
<svg version="1.1" xmlns="http://www.w3.org/2000/svg" xmlns:xlink="http://www.w3.org/1999/xlink" x="0px" y="0px"
	 viewBox="0 0 1398.9 480" enable-background="new 0 0 1398.9 480" xml:space="preserve">
<g id="Layer_2">
	<rect x="-1.8" y="-468.3" fill="#231F20" width="1400" height="1025"/>
</g>
<g id="Layer_1">
	<g>
		<defs>
			<rect id="SVGID_2_" x="-1.8" y="-468.3" width="1400" height="1025"/>
		</defs>
		<clipPath id="SVGID_1_">
			<use xlink:href="#SVGID_2_"  overflow="visible"/>
		</clipPath>
		<g clip-path="url(#SVGID_1_)">
			<g>
				
					<rect x="-102.3" y="3.5" transform="matrix(0.4197 -0.9077 0.9077 0.4197 -77.6835 205.5537)" fill="#D8D8D8" width="448.5" height="320"/>
				<polygon fill="#58595B" points="296,103.3 57.1,-7.2 57.6,-8.3 296.5,102.1 				"/>
				<polygon fill="#58595B" points="291.1,113.7 52.2,3.3 52.7,2.2 291.7,112.6 				"/>
				<polygon fill="#58595B" points="286.5,123.8 47.5,13.4 48.1,12.2 287,122.7 				"/>
				<polygon fill="#58595B" points="281.6,134.3 42.7,23.8 43.2,22.7 282.2,133.2 				"/>
				
					<rect x="157" y="-42.7" transform="matrix(0.4196 -0.9077 0.9077 0.4196 10.7793 194.6668)" fill="#58595B" width="1.2" height="263.2"/>
				
					<rect x="152.1" y="-32.2" transform="matrix(0.4196 -0.9077 0.9077 0.4196 -1.5538 196.355)" fill="#58595B" width="1.3" height="263.2"/>
				
					<rect x="147.2" y="-21.4" transform="matrix(0.4197 -0.9077 0.9077 0.4197 -14.271 198.0866)" fill="#58595B" width="1.2" height="263.2"/>
				
					<rect x="142.3" y="-10.9" transform="matrix(0.4197 -0.9077 0.9077 0.4197 -26.6011 199.7738)" fill="#58595B" width="1.2" height="263.2"/>
				<polygon fill="#58595B" points="257.1,187.4 18.2,76.9 18.7,75.8 257.6,186.3 				"/>
				<polygon fill="#58595B" points="252.2,197.9 13.3,87.4 13.8,86.3 252.8,196.8 				"/>
				
					<rect x="127.4" y="21.3" transform="matrix(0.4197 -0.9077 0.9077 0.4197 -64.5229 204.9577)" fill="#58595B" width="1.2" height="263.2"/>
				<polygon fill="#58595B" points="242.4,219.2 3.4,108.8 4,107.6 242.9,218.1 				"/>
				
					<rect x="60.2" y="82.8" transform="matrix(0.4197 -0.9077 0.9077 0.4197 -104.2904 144.4246)" fill="#58595B" width="1.2" height="141.9"/>
				
					<rect x="55.7" y="92.5" transform="matrix(0.4197 -0.9077 0.9077 0.4197 -115.6482 145.9777)" fill="#58595B" width="1.2" height="141.9"/>
				<polygon fill="#58595B" points="116.3,202.7 -12.5,143.1 -11.9,142 116.9,201.6 				"/>
				<polygon fill="#58595B" points="111.9,212.3 -16.9,152.8 -16.4,151.7 112.4,211.2 				"/>
				
					<rect x="42.3" y="121.5" transform="matrix(0.4197 -0.9077 0.9077 0.4197 -149.7332 150.6354)" fill="#58595B" width="1.2" height="141.9"/>
				
					<rect x="37.8" y="131.1" transform="matrix(0.4197 -0.9077 0.9077 0.4197 -161.0902 152.1845)" fill="#58595B" width="1.2" height="141.9"/>
				
					<rect x="33.7" y="140" transform="matrix(0.4196 -0.9077 0.9077 0.4196 -171.5793 153.6286)" fill="#58595B" width="1.2" height="141.9"/>
				<polygon fill="#58595B" points="94,251 -34.8,191.4 -34.3,190.3 94.5,249.9 				"/>
				<polygon fill="#58595B" points="89.5,260.8 -39.3,201.2 -38.8,200.1 90,259.7 				"/>
				<polygon fill="#58595B" points="85,270.4 -43.8,210.9 -43.3,209.8 85.5,269.3 				"/>
				<polygon fill="#58595B" points="80.9,279.4 -47.9,219.8 -47.4,218.7 81.4,278.2 				"/>
				
					<rect x="11.7" y="187.7" transform="matrix(0.4197 -0.9077 0.9077 0.4197 -227.6617 161.2801)" fill="#58595B" width="1.2" height="141.9"/>
				
					<rect x="7.2" y="197.3" transform="matrix(0.4197 -0.9077 0.9077 0.4197 -238.9641 162.8239)" fill="#58595B" width="1.2" height="141.9"/>
				<polygon fill="#58595B" points="67.9,307.5 -60.9,248 -60.4,246.9 68.4,306.4 				"/>
				
					<rect x="-1.4" y="215.9" transform="matrix(0.4197 -0.9077 0.9077 0.4197 -260.8106 165.8139)" fill="#58595B" width="1.2" height="141.9"/>
				<polygon fill="#58595B" points="58.9,326.8 -69.8,267.3 -69.3,266.2 59.5,325.7 				"/>
				
					<rect x="-10.3" y="235.2" transform="matrix(0.4196 -0.9077 0.9077 0.4196 -283.4944 168.9147)" fill="#58595B" width="1.3" height="141.9"/>
				
					<rect x="73.8" y="243.4" transform="matrix(0.4197 -0.9077 0.9077 0.4197 -172.7627 311.3025)" fill="#58595B" width="166.6" height="94.8"/>
				
					<rect x="193.8" y="-138.4" transform="matrix(0.4197 -0.9077 0.9077 0.4197 123.3422 179.2843)" fill="#58595B" width="16.1" height="263.2"/>
				
					<rect x="214.9" y="-64" transform="matrix(0.4197 -0.9077 0.9077 0.4197 100.241 221.0145)" fill="#58595B" width="16.1" height="192.3"/>
			</g>
			<g>
				
					<rect x="54.8" y="112.3" transform="matrix(0.9932 -0.1165 0.1165 0.9932 -37.7532 27.3315)" fill="#DBDBDB" width="320" height="448.5"/>
				<polygon fill="#58595B" points="331.8,194.1 70.3,224.8 70.2,223.6 331.6,192.9 				"/>
				<polygon fill="#58595B" points="333.1,205.6 71.7,236.3 71.5,235.1 333,204.4 				"/>
				<polygon fill="#58595B" points="334.4,216.6 73,247.3 72.8,246.1 334.3,215.4 				"/>
				<polygon fill="#58595B" points="335.7,228.1 74.3,258.8 74.2,257.6 335.6,226.9 				"/>
				
					<rect x="74.7" y="253.6" transform="matrix(0.9932 -0.1166 0.1166 0.9932 -28.2237 25.7774)" fill="#58595B" width="263.2" height="1.2"/>
				
					<rect x="76" y="265.1" transform="matrix(0.9932 -0.1166 0.1166 0.9932 -29.5523 26.0131)" fill="#58595B" width="263.2" height="1.3"/>
				
					<rect x="77.4" y="276.9" transform="matrix(0.9932 -0.1165 0.1165 0.9932 -30.917 26.2507)" fill="#58595B" width="263.2" height="1.2"/>
				
					<rect x="78.8" y="288.4" transform="matrix(0.9932 -0.1166 0.1166 0.9932 -32.2477 26.4884)" fill="#58595B" width="263.2" height="1.2"/>
				<polygon fill="#58595B" points="342.6,286.2 81.1,316.9 81,315.6 342.4,285 				"/>
				<polygon fill="#58595B" points="343.9,297.7 82.5,328.4 82.3,327.1 343.8,296.4 				"/>
				
					<rect x="82.9" y="323.6" transform="matrix(0.9932 -0.1166 0.1166 0.9932 -36.3335 27.2129)" fill="#58595B" width="263.2" height="1.2"/>
				<polygon fill="#58595B" points="346.6,321 85.2,351.7 85.1,350.5 346.5,319.8 				"/>
				
					<rect x="86.7" y="359.5" transform="matrix(0.9932 -0.1165 0.1165 0.9932 -40.8932 20.825)" fill="#58595B" width="141.9" height="1.2"/>
				
					<rect x="87.9" y="370.1" transform="matrix(0.9932 -0.1166 0.1166 0.9932 -42.1222 21.0447)" fill="#58595B" width="141.9" height="1.2"/>
				<polygon fill="#58595B" points="230.6,372.8 89.6,389.3 89.5,388.1 230.4,371.5 				"/>
				<polygon fill="#58595B" points="231.8,383.4 90.9,399.9 90.7,398.6 231.7,382.1 				"/>
				
					<rect x="91.7" y="401.8" transform="matrix(0.9932 -0.1165 0.1165 0.9932 -45.7888 21.6925)" fill="#58595B" width="141.9" height="1.2"/>
				
					<rect x="92.9" y="412.3" transform="matrix(0.9932 -0.1165 0.1165 0.9932 -47.0053 21.9055)" fill="#58595B" width="141.9" height="1.2"/>
				
					<rect x="94" y="422.1" transform="matrix(0.9932 -0.1166 0.1166 0.9932 -48.1549 22.1163)" fill="#58595B" width="141.9" height="1.2"/>
				<polygon fill="#58595B" points="236.8,425.6 95.8,442.2 95.7,440.9 236.6,424.4 				"/>
				<polygon fill="#58595B" points="238,436.4 97.1,452.9 96.9,451.7 237.9,435.1 				"/>
				<polygon fill="#58595B" points="239.3,446.9 98.3,463.5 98.2,462.2 239.1,445.7 				"/>
				<polygon fill="#58595B" points="240.4,456.7 99.5,473.2 99.3,472 240.3,455.4 				"/>
				
					<rect x="100.2" y="474.3" transform="matrix(0.9932 -0.1165 0.1165 0.9932 -54.1763 23.1756)" fill="#58595B" width="141.9" height="1.2"/>
				
					<rect x="101.4" y="484.8" transform="matrix(0.9932 -0.1165 0.1165 0.9932 -55.3944 23.3915)" fill="#58595B" width="141.9" height="1.2"/>
				
					<rect x="263.9" y="343.3" transform="matrix(0.9932 -0.1165 0.1165 0.9932 -47.5876 39.1807)" fill="#58595B" width="94.8" height="166.6"/>
				
					<rect x="62.4" y="141.4" transform="matrix(0.9932 -0.1165 0.1165 0.9932 -16.0974 23.6272)" fill="#58595B" width="263.2" height="16.1"/>
				
					<rect x="136.2" y="163.6" transform="matrix(0.9932 -0.1165 0.1165 0.9932 -18.421 28.2451)" fill="#58595B" width="192.3" height="16.1"/>
			</g>
			<g>
				<path fill="#401616" d="M930.3-140H489.7c-20.9,0-37.9,17-37.9,37.9v292.4c0,34,1.8,68.1,5.3,101.9l9.9,95
					c4.3,41.6,39.4,73.1,81.2,73.1h323.6c41.8,0,76.8-31.6,81.2-73.1l9.9-95c3.5-33.9,5.3-67.9,5.3-101.9v-292.4
					C968.2-123,951.2-140,930.3-140z"/>
				<path fill="#8B8C8C" d="M851.3,160.6L752,110.1V92.8h-42c12.2,0,22.2,9.9,22.2,22.2c0,12.2-9.9,22.2-22.2,22.2
					c-12.2,0-22.2-9.9-22.2-22.2c0-12.2,9.9-22.2,22.2-22.2h-42v17.3l-99.3,50.6l-1.8,2.3c0,0,22.6,79.2,143.1,79.2
					s143.1-79.2,143.1-79.2L851.3,160.6z"/>
				<path fill="#373638" d="M954.6,67.8H465.4c-7.5,0-13.6-6.1-13.6-13.6V22c0-7.5,6.1-13.6,13.6-13.6h489.1
					c7.5,0,13.6,6.1,13.6,13.6v32.3C968.2,61.7,962.1,67.8,954.6,67.8z"/>
				<path fill="#D8D8D8" d="M473.2,8.4h-7.8c-7.5,0-13.6,6.1-13.6,13.6v32.3c0,7.5,6.1,13.6,13.6,13.6h7.8V8.4z"/>
				<path fill="#D8D8D8" d="M946.8,67.8h7.8c7.5,0,13.6-6.1,13.6-13.6V22c0-7.5-6.1-13.6-13.6-13.6h-7.8V67.8z"/>
				<path fill="#D8D8D8" d="M386-58.8c-4.8,0-8.6,3.9-8.6,8.6v15.5v53.2c0,12.6-4.6,24.8-12.9,34.3l-3.6,4.1
					c-1.4,2.2-2.2,4.9-2.2,7.5v0c0,7.8,6.3,14,14,14h4.6c9.4,0,17-7.6,17-17v-96.1h37c2.5,0,5-1,6.8-2.7l7.1-6.7
					c1.9-1.7,4.3-2.7,6.8-2.7h13.5v-12.1H386z"/>
				<rect x="426.2" y="29" fill="#373638" width="25.6" height="16.5"/>
				<path fill="#401616" d="M429.4,55.3h-11.9c-8.2,0-14.9-6.7-14.9-14.9v-4.7c0-8.2,6.7-14.9,14.9-14.9h11.9V55.3z"/>
				<rect x="968.2" y="30.7" fill="#373638" width="25.6" height="16.5"/>
				<path fill="#401616" d="M990.6,20.8h11.9c8.2,0,14.9,6.7,14.9,14.9v4.7c0,8.2-6.7,14.9-14.9,14.9h-11.9V20.8z"/>
				<g>
					<path fill="#373638" d="M491.4,293.4L491.4,293.4c0,35.8,7.1,71.3,20.8,104.4l3.3,8c6,14.5,20.2,24,35.9,24h317.8
						c15.7,0,29.9-9.5,35.9-24l3.3-8c13.7-33.1,20.8-68.6,20.8-104.4v0c0-9.1-7.4-16.4-16.4-16.4H507.9
						C498.8,277,491.4,284.3,491.4,293.4z"/>
					<g>
						<path fill="#D8D8D8" d="M516.6,317.5h-4.3c-5.1,0-9.3-4.2-9.3-9.3v-4.3c0-5.1,4.2-9.3,9.3-9.3h4.3c5.1,0,9.3,4.2,9.3,9.3v4.3
							C525.9,313.4,521.7,317.5,516.6,317.5z"/>
						<path fill="#D8D8D8" d="M549.3,317.5H545c-5.1,0-9.3-4.2-9.3-9.3v-4.3c0-5.1,4.2-9.3,9.3-9.3h4.3c5.1,0,9.3,4.2,9.3,9.3v4.3
							C558.6,313.4,554.4,317.5,549.3,317.5z"/>
						<path fill="#D8D8D8" d="M532.9,349.1h-4.3c-5.1,0-9.3-4.2-9.3-9.3v-4.3c0-5.1,4.2-9.3,9.3-9.3h4.3c5.1,0,9.3,4.2,9.3,9.3v4.3
							C542.2,344.9,538.1,349.1,532.9,349.1z"/>
						<path fill="#D8D8D8" d="M565.6,349.1h-4.3c-5.1,0-9.3-4.2-9.3-9.3v-4.3c0-5.1,4.2-9.3,9.3-9.3h4.3c5.1,0,9.3,4.2,9.3,9.3v4.3
							C574.9,344.9,570.7,349.1,565.6,349.1z"/>
						<path fill="#D8D8D8" d="M549.3,380.6H545c-5.1,0-9.3-4.2-9.3-9.3V367c0-5.1,4.2-9.3,9.3-9.3h4.3c5.1,0,9.3,4.2,9.3,9.3v4.3
							C558.6,376.5,554.4,380.6,549.3,380.6z"/>
						<path fill="#D8D8D8" d="M581.9,380.6h-4.3c-5.1,0-9.3-4.2-9.3-9.3V367c0-5.1,4.2-9.3,9.3-9.3h4.3c5.1,0,9.3,4.2,9.3,9.3v4.3
							C591.2,376.5,587.1,380.6,581.9,380.6z"/>
						<path fill="#D8D8D8" d="M614.6,380.6h-4.3c-5.1,0-9.3-4.2-9.3-9.3V367c0-5.1,4.2-9.3,9.3-9.3h4.3c5.1,0,9.3,4.2,9.3,9.3v4.3
							C623.9,376.5,619.7,380.6,614.6,380.6z"/>
						<path fill="#D8D8D8" d="M647.3,380.6h-4.3c-5.1,0-9.3-4.2-9.3-9.3V367c0-5.1,4.2-9.3,9.3-9.3h4.3c5.1,0,9.3,4.2,9.3,9.3v4.3
							C656.5,376.5,652.4,380.6,647.3,380.6z"/>
						<path fill="#D8D8D8" d="M679.9,380.6h-4.3c-5.1,0-9.3-4.2-9.3-9.3V367c0-5.1,4.2-9.3,9.3-9.3h4.3c5.1,0,9.3,4.2,9.3,9.3v4.3
							C689.2,376.5,685,380.6,679.9,380.6z"/>
						<path fill="#D8D8D8" d="M712.6,380.6h-4.3c-5.1,0-9.3-4.2-9.3-9.3V367c0-5.1,4.2-9.3,9.3-9.3h4.3c5.1,0,9.3,4.2,9.3,9.3v4.3
							C721.9,376.5,717.7,380.6,712.6,380.6z"/>
						<path fill="#D8D8D8" d="M745.2,380.6h-4.3c-5.1,0-9.3-4.2-9.3-9.3V367c0-5.1,4.2-9.3,9.3-9.3h4.3c5.1,0,9.3,4.2,9.3,9.3v4.3
							C754.5,376.5,750.4,380.6,745.2,380.6z"/>
						<path fill="#D8D8D8" d="M777.9,380.6h-4.3c-5.1,0-9.3-4.2-9.3-9.3V367c0-5.1,4.2-9.3,9.3-9.3h4.3c5.1,0,9.3,4.2,9.3,9.3v4.3
							C787.2,376.5,783,380.6,777.9,380.6z"/>
						<path fill="#D8D8D8" d="M810.6,380.6h-4.3c-5.1,0-9.3-4.2-9.3-9.3V367c0-5.1,4.2-9.3,9.3-9.3h4.3c5.1,0,9.3,4.2,9.3,9.3v4.3
							C819.8,376.5,815.7,380.6,810.6,380.6z"/>
						<path fill="#D8D8D8" d="M843.2,380.6h-4.3c-5.1,0-9.3-4.2-9.3-9.3V367c0-5.1,4.2-9.3,9.3-9.3h4.3c5.1,0,9.3,4.2,9.3,9.3v4.3
							C852.5,376.5,848.4,380.6,843.2,380.6z"/>
						<path fill="#D8D8D8" d="M875.9,380.6h-4.3c-5.1,0-9.3-4.2-9.3-9.3V367c0-5.1,4.2-9.3,9.3-9.3h4.3c5.1,0,9.3,4.2,9.3,9.3v4.3
							C885.2,376.5,881,380.6,875.9,380.6z"/>
						<path fill="#D8D8D8" d="M565.6,412.2h-4.3c-5.1,0-9.3-4.2-9.3-9.3v-4.3c0-5.1,4.2-9.3,9.3-9.3h4.3c5.1,0,9.3,4.2,9.3,9.3v4.3
							C574.9,408,570.7,412.2,565.6,412.2z"/>
						<path fill="#D8D8D8" d="M598.3,412.2H594c-5.1,0-9.3-4.2-9.3-9.3v-4.3c0-5.1,4.2-9.3,9.3-9.3h4.3c5.1,0,9.3,4.2,9.3,9.3v4.3
							C607.5,408,603.4,412.2,598.3,412.2z"/>
						<path fill="#D8D8D8" d="M630.9,412.2h-4.3c-5.1,0-9.3-4.2-9.3-9.3v-4.3c0-5.1,4.2-9.3,9.3-9.3h4.3c5.1,0,9.3,4.2,9.3,9.3v4.3
							C640.2,408,636.1,412.2,630.9,412.2z"/>
						<path fill="#D8D8D8" d="M663.6,412.2h-4.3c-5.1,0-9.3-4.2-9.3-9.3v-4.3c0-5.1,4.2-9.3,9.3-9.3h4.3c5.1,0,9.3,4.2,9.3,9.3v4.3
							C672.9,408,668.7,412.2,663.6,412.2z"/>
						<path fill="#D8D8D8" d="M696.3,412.2h-4.3c-5.1,0-9.3-4.2-9.3-9.3v-4.3c0-5.1,4.2-9.3,9.3-9.3h4.3c5.1,0,9.3,4.2,9.3,9.3v4.3
							C705.5,408,701.4,412.2,696.3,412.2z"/>
						<path fill="#D8D8D8" d="M728.9,412.2h-4.3c-5.1,0-9.3-4.2-9.3-9.3v-4.3c0-5.1,4.2-9.3,9.3-9.3h4.3c5.1,0,9.3,4.2,9.3,9.3v4.3
							C738.2,408,734,412.2,728.9,412.2z"/>
						<path fill="#D8D8D8" d="M761.6,412.2h-4.3c-5.1,0-9.3-4.2-9.3-9.3v-4.3c0-5.1,4.2-9.3,9.3-9.3h4.3c5.1,0,9.3,4.2,9.3,9.3v4.3
							C770.9,408,766.7,412.2,761.6,412.2z"/>
						<path fill="#D8D8D8" d="M794.2,412.2h-4.3c-5.1,0-9.3-4.2-9.3-9.3v-4.3c0-5.1,4.2-9.3,9.3-9.3h4.3c5.1,0,9.3,4.2,9.3,9.3v4.3
							C803.5,408,799.4,412.2,794.2,412.2z"/>
						<path fill="#D8D8D8" d="M826.9,412.2h-4.3c-5.1,0-9.3-4.2-9.3-9.3v-4.3c0-5.1,4.2-9.3,9.3-9.3h4.3c5.1,0,9.3,4.2,9.3,9.3v4.3
							C836.2,408,832,412.2,826.9,412.2z"/>
						<path fill="#D8D8D8" d="M859.6,412.2h-4.3c-5.1,0-9.3-4.2-9.3-9.3v-4.3c0-5.1,4.2-9.3,9.3-9.3h4.3c5.1,0,9.3,4.2,9.3,9.3v4.3
							C868.8,408,864.7,412.2,859.6,412.2z"/>
						<path fill="#D8D8D8" d="M598.3,349.1H594c-5.1,0-9.3-4.2-9.3-9.3v-4.3c0-5.1,4.2-9.3,9.3-9.3h4.3c5.1,0,9.3,4.2,9.3,9.3v4.3
							C607.5,344.9,603.4,349.1,598.3,349.1z"/>
						<path fill="#D8D8D8" d="M630.9,349.1h-4.3c-5.1,0-9.3-4.2-9.3-9.3v-4.3c0-5.1,4.2-9.3,9.3-9.3h4.3c5.1,0,9.3,4.2,9.3,9.3v4.3
							C640.2,344.9,636.1,349.1,630.9,349.1z"/>
						<path fill="#D8D8D8" d="M663.6,349.1h-4.3c-5.1,0-9.3-4.2-9.3-9.3v-4.3c0-5.1,4.2-9.3,9.3-9.3h4.3c5.1,0,9.3,4.2,9.3,9.3v4.3
							C672.9,344.9,668.7,349.1,663.6,349.1z"/>
						<path fill="#D8D8D8" d="M696.3,349.1h-4.3c-5.1,0-9.3-4.2-9.3-9.3v-4.3c0-5.1,4.2-9.3,9.3-9.3h4.3c5.1,0,9.3,4.2,9.3,9.3v4.3
							C705.5,344.9,701.4,349.1,696.3,349.1z"/>
						<path fill="#D8D8D8" d="M728.9,349.1h-4.3c-5.1,0-9.3-4.2-9.3-9.3v-4.3c0-5.1,4.2-9.3,9.3-9.3h4.3c5.1,0,9.3,4.2,9.3,9.3v4.3
							C738.2,344.9,734,349.1,728.9,349.1z"/>
						<path fill="#D8D8D8" d="M761.6,349.1h-4.3c-5.1,0-9.3-4.2-9.3-9.3v-4.3c0-5.1,4.2-9.3,9.3-9.3h4.3c5.1,0,9.3,4.2,9.3,9.3v4.3
							C770.9,344.9,766.7,349.1,761.6,349.1z"/>
						<path fill="#D8D8D8" d="M794.2,349.1h-4.3c-5.1,0-9.3-4.2-9.3-9.3v-4.3c0-5.1,4.2-9.3,9.3-9.3h4.3c5.1,0,9.3,4.2,9.3,9.3v4.3
							C803.5,344.9,799.4,349.1,794.2,349.1z"/>
						<path fill="#D8D8D8" d="M826.9,349.1h-4.3c-5.1,0-9.3-4.2-9.3-9.3v-4.3c0-5.1,4.2-9.3,9.3-9.3h4.3c5.1,0,9.3,4.2,9.3,9.3v4.3
							C836.2,344.9,832,349.1,826.9,349.1z"/>
						<path fill="#D8D8D8" d="M859.6,349.1h-4.3c-5.1,0-9.3-4.2-9.3-9.3v-4.3c0-5.1,4.2-9.3,9.3-9.3h4.3c5.1,0,9.3,4.2,9.3,9.3v4.3
							C868.8,344.9,864.7,349.1,859.6,349.1z"/>
						<path fill="#D8D8D8" d="M892.2,349.1h-4.3c-5.1,0-9.3-4.2-9.3-9.3v-4.3c0-5.1,4.2-9.3,9.3-9.3h4.3c5.1,0,9.3,4.2,9.3,9.3v4.3
							C901.5,344.9,897.3,349.1,892.2,349.1z"/>
						<path fill="#D8D8D8" d="M581.9,317.5h-4.3c-5.1,0-9.3-4.2-9.3-9.3v-4.3c0-5.1,4.2-9.3,9.3-9.3h4.3c5.1,0,9.3,4.2,9.3,9.3v4.3
							C591.2,313.4,587.1,317.5,581.9,317.5z"/>
						<path fill="#D8D8D8" d="M614.6,317.5h-4.3c-5.1,0-9.3-4.2-9.3-9.3v-4.3c0-5.1,4.2-9.3,9.3-9.3h4.3c5.1,0,9.3,4.2,9.3,9.3v4.3
							C623.9,313.4,619.7,317.5,614.6,317.5z"/>
						<path fill="#D8D8D8" d="M647.3,317.5h-4.3c-5.1,0-9.3-4.2-9.3-9.3v-4.3c0-5.1,4.2-9.3,9.3-9.3h4.3c5.1,0,9.3,4.2,9.3,9.3v4.3
							C656.5,313.4,652.4,317.5,647.3,317.5z"/>
						<path fill="#D8D8D8" d="M679.9,317.5h-4.3c-5.1,0-9.3-4.2-9.3-9.3v-4.3c0-5.1,4.2-9.3,9.3-9.3h4.3c5.1,0,9.3,4.2,9.3,9.3v4.3
							C689.2,313.4,685,317.5,679.9,317.5z"/>
						<path fill="#D8D8D8" d="M712.6,317.5h-4.3c-5.1,0-9.3-4.2-9.3-9.3v-4.3c0-5.1,4.2-9.3,9.3-9.3h4.3c5.1,0,9.3,4.2,9.3,9.3v4.3
							C721.9,313.4,717.7,317.5,712.6,317.5z"/>
						<path fill="#D8D8D8" d="M745.2,317.5h-4.3c-5.1,0-9.3-4.2-9.3-9.3v-4.3c0-5.1,4.2-9.3,9.3-9.3h4.3c5.1,0,9.3,4.2,9.3,9.3v4.3
							C754.5,313.4,750.4,317.5,745.2,317.5z"/>
						<path fill="#D8D8D8" d="M777.9,317.5h-4.3c-5.1,0-9.3-4.2-9.3-9.3v-4.3c0-5.1,4.2-9.3,9.3-9.3h4.3c5.1,0,9.3,4.2,9.3,9.3v4.3
							C787.2,313.4,783,317.5,777.9,317.5z"/>
						<path fill="#D8D8D8" d="M810.6,317.5h-4.3c-5.1,0-9.3-4.2-9.3-9.3v-4.3c0-5.1,4.2-9.3,9.3-9.3h4.3c5.1,0,9.3,4.2,9.3,9.3v4.3
							C819.8,313.4,815.7,317.5,810.6,317.5z"/>
						<path fill="#D8D8D8" d="M843.2,317.5h-4.3c-5.1,0-9.3-4.2-9.3-9.3v-4.3c0-5.1,4.2-9.3,9.3-9.3h4.3c5.1,0,9.3,4.2,9.3,9.3v4.3
							C852.5,313.4,848.4,317.5,843.2,317.5z"/>
						<path fill="#D8D8D8" d="M875.9,317.5h-4.3c-5.1,0-9.3-4.2-9.3-9.3v-4.3c0-5.1,4.2-9.3,9.3-9.3h4.3c5.1,0,9.3,4.2,9.3,9.3v4.3
							C885.2,313.4,881,317.5,875.9,317.5z"/>
						<path fill="#D8D8D8" d="M908.6,317.5h-4.3c-5.1,0-9.3-4.2-9.3-9.3v-4.3c0-5.1,4.2-9.3,9.3-9.3h4.3c5.1,0,9.3,4.2,9.3,9.3v4.3
							C917.8,313.4,913.7,317.5,908.6,317.5z"/>
					</g>
				</g>
				<path fill="#373638" d="M745.3,114.8c0-8.3-2.9-16-7.7-22h-6.4c5.8,5.6,9.4,13.4,9.4,22c0,16.9-13.7,30.6-30.6,30.6
					c-16.9,0-30.6-13.7-30.6-30.6c0-8.6,3.6-16.4,9.4-22h-6.4c-4.8,6-7.7,13.7-7.7,22c0,19.5,15.9,35.4,35.4,35.4
					C729.5,150.1,745.3,134.3,745.3,114.8z"/>
				<path fill="#373638" d="M767.7,118.1l-4.7-2.4c-0.5,28.8-24.1,52.2-53,52.2c-28.9,0-52.5-23.3-53-52.2l-4.7,2.4
					c1.7,30.3,26.9,54.5,57.7,54.5S766,148.4,767.7,118.1z"/>
				<path fill="#401616" d="M784.4,126.6l-4.5-2.3c-4.7,34.5-34.2,61.1-70,61.1c-35.7,0-65.3-26.6-70-61.1l-4.5,2.3
					c5.7,36,36.9,63.6,74.4,63.6C747.5,190.1,778.7,162.6,784.4,126.6z"/>
				<path fill="#D8D8D8" d="M568.3,258.5h-67.2c-6.1,0-11.1-5-11.1-11.1l0,0c0-6.1,5-11.1,11.1-11.1h67.2c6.1,0,11.1,5,11.1,11.1
					l0,0C579.4,253.5,574.4,258.5,568.3,258.5z"/>
				<path fill="#373638" d="M710,92.8h-42v17.3l-99.3,50.6l-1.8,2.3c0,0,1.2,4.3,4.6,10.8l116.4-58.7
					C687.8,102.7,697.7,92.8,710,92.8z"/>
				<path fill="#373638" d="M710,92.8h42v17.3l99.3,50.6l1.8,2.3c0,0-1.2,4.3-4.6,10.8l-116.4-58.7C732.1,102.7,722.2,92.8,710,92.8
					z"/>
				<path fill="#D8D8D8" d="M892.6-242.6c0-31.9,25.9-57.7,57.9-57.7h-57.9H689.4H583.7c-31.1,0-56.3,25.1-56.3,56.1V67.8h365.1
					v-223.5V-214V-242.6z"/>
				<g>
					<path fill="#401616" d="M654.5,41.9h-71.2c-5.8,0-11.3,2.8-14.7,7.4L554,69h91.5l13.5-18.3C661.6,47.1,659,41.9,654.5,41.9z"/>
					<path fill="#401616" d="M766.7,41.9h71.2c5.8,0,11.3,2.8,14.7,7.4L867.1,69h-91.5l-13.5-18.3C759.5,47.1,762.1,41.9,766.7,41.9
						z"/>
				</g>
				<g>
					<path fill="#401616" d="M502.2,247.4c0,1.4-1.2,2.6-2.6,2.6c-1.4,0-2.6-1.2-2.6-2.6c0-1.4,1.2-2.6,2.6-2.6
						C501.1,244.8,502.2,245.9,502.2,247.4z"/>
					<path fill="#401616" d="M572.4,247.4c0,1.4-1.2,2.6-2.6,2.6c-1.4,0-2.6-1.2-2.6-2.6c0-1.4,1.2-2.6,2.6-2.6
						C571.2,244.8,572.4,245.9,572.4,247.4z"/>
				</g>
				<polygon fill="#373638" points="721.1,67.7 720,67.7 719.5,67.7 719.5,116.2 710,116.2 710,116.2 700.5,116.2 700.5,67.7 
					699.9,67.7 698.9,67.7 683,67.7 683,69.1 698.9,69.1 698.9,116.2 698.9,117.6 700.5,117.6 710,117.6 710,117.6 719.5,117.6 
					721.1,117.6 721.1,116.2 721.1,69.1 737,69.1 737,67.7 				"/>
			</g>
			<g>
				<g>
					<g>
						<path fill="#2B3640" d="M1455.9-145.7l-7.3,1.4l-163,32h0l0,0l-7.3,1.4l0,0v0l52.5,267.3l7.3-1.4l163.1-32l7.3-1.4
							c5.8-1.1,9.5-6.7,8.4-12.5L1496.7,7l-8.3-42.2l-20-102.1C1467.2-143.1,1461.6-146.8,1455.9-145.7z"/>
						<path fill="#C6C7C7" d="M1496.9,70.9L1482.7-1l-1.1-5.8l-1.9-9.9l-1.1-5.8l-14.1-71.9l-3.1-15.7c-2.7-13.7-16-22.7-29.7-20
							l-47.9,9.4l0,0l-98.7,19.4l0,0h0l3.1,15.7l19,96.8l1.1,5.8l1.9,9.9l1.1,5.8l19,96.8l3.1,15.7l146.6-28.8
							c13.7-2.7,22.7-16,20-29.7L1496.9,70.9z"/>
					</g>
					<g>
						<g>
							<polygon fill="#A0A2A6" points="1460.5,-21.3 1324.2,5.4 1324,4.6 1460.3,-22.1 							"/>
						</g>
						<g>
							<polygon fill="#A0A2A6" points="1463.1,-7.9 1326.8,18.9 1326.6,18.1 1463,-8.7 							"/>
						</g>
						<g>
							
								<rect x="1328.1" y="18.1" transform="matrix(0.9813 -0.1927 0.1927 0.9813 22.6153 269.5944)" fill="#A0A2A6" width="138.9" height="0.8"/>
						</g>
						<g>
							
								<rect x="1330.7" y="31.5" transform="matrix(0.9813 -0.1926 0.1926 0.9813 20.0743 270.337)" fill="#A0A2A6" width="138.9" height="0.8"/>
						</g>
						<g>
							<polygon fill="#A0A2A6" points="1471,32.4 1334.7,59.2 1334.5,58.4 1470.9,31.6 							"/>
						</g>
						<g>
							
								<rect x="1336" y="58.4" transform="matrix(0.9813 -0.1926 0.1926 0.9813 14.9957 271.8425)" fill="#A0A2A6" width="138.9" height="0.8"/>
						</g>
						<g>
							
								<rect x="1338.6" y="71.8" transform="matrix(0.9813 -0.1926 0.1926 0.9813 12.4555 272.5852)" fill="#A0A2A6" width="138.9" height="0.8"/>
						</g>
						<g>
							
								<rect x="1341.2" y="85.3" transform="matrix(0.9813 -0.1926 0.1926 0.9813 9.9197 273.3615)" fill="#A0A2A6" width="138.9" height="0.8"/>
						</g>
						<g>
							
								<rect x="1343.9" y="98.7" transform="matrix(0.9813 -0.1926 0.1926 0.9813 7.3816 274.1178)" fill="#A0A2A6" width="138.9" height="0.8"/>
						</g>
						<g>
							
								<rect x="1346.5" y="112.1" transform="matrix(0.9813 -0.1926 0.1926 0.9813 4.8437 274.8786)" fill="#A0A2A6" width="138.9" height="0.8"/>
						</g>
					</g>
					<g>
						<path fill="#2B3640" d="M1316.4-2.8c0.3,1.8-0.8,3.5-2.6,3.8c-1.8,0.3-3.5-0.8-3.8-2.6c-0.3-1.8,0.8-3.5,2.6-3.8
							C1314.4-5.7,1316.1-4.5,1316.4-2.8z"/>
						<path fill="#2B3640" d="M1320.8,19.6c0.3,1.8-0.8,3.5-2.6,3.8c-1.8,0.3-3.5-0.8-3.8-2.6c-0.3-1.8,0.8-3.5,2.6-3.8
							C1318.8,16.7,1320.5,17.8,1320.8,19.6z"/>
						<path fill="#2B3640" d="M1325.2,42c0.3,1.8-0.8,3.5-2.6,3.8c-1.8,0.3-3.5-0.8-3.8-2.6c-0.3-1.8,0.8-3.5,2.6-3.8
							C1323.2,39.1,1324.9,40.2,1325.2,42z"/>
						<path fill="#2B3640" d="M1329.6,64.4c0.3,1.8-0.8,3.5-2.6,3.8c-1.8,0.3-3.5-0.8-3.8-2.6c-0.3-1.8,0.8-3.5,2.6-3.8
							C1327.6,61.5,1329.3,62.6,1329.6,64.4z"/>
						<path fill="#2B3640" d="M1334,86.8c0.3,1.8-0.8,3.5-2.6,3.8c-1.8,0.3-3.5-0.8-3.8-2.6c-0.3-1.8,0.8-3.5,2.6-3.8
							C1332,83.8,1333.7,85,1334,86.8z"/>
						<path fill="#2B3640" d="M1338.4,109.2c0.3,1.8-0.8,3.5-2.6,3.8c-1.8,0.3-3.5-0.8-3.8-2.6c-0.3-1.8,0.8-3.5,2.6-3.8
							C1336.4,106.2,1338.1,107.4,1338.4,109.2z"/>
						<path fill="#2B3640" d="M1342.8,131.5c0.3,1.8-0.8,3.5-2.6,3.8c-1.8,0.3-3.5-0.8-3.8-2.6c-0.3-1.8,0.8-3.5,2.6-3.8
							C1340.7,128.6,1342.5,129.8,1342.8,131.5z"/>
					</g>
					<g>
						<path fill="#2B3640" d="M1455.9-145.7l-7.3,1.4l-163,32h0l0,0l-7.3,1.4l0,0v0l52.5,267.3l7.3-1.4l163.1-32l7.3-1.4
							c5.8-1.1,9.5-6.7,8.4-12.5L1496.7,7l-8.3-42.2l-20-102.1C1467.2-143.1,1461.6-146.8,1455.9-145.7z"/>
						<path fill="#C6C7C7" d="M1496.9,70.9L1482.7-1l-1.1-5.8l-1.9-9.9l-1.1-5.8l-14.1-71.9l-3.1-15.7c-2.7-13.7-16-22.7-29.7-20
							l-47.9,9.4l0,0l-98.7,19.4l0,0h0l3.1,15.7l19,96.8l1.1,5.8l1.9,9.9l1.1,5.8l19,96.8l3.1,15.7l146.6-28.8
							c13.7-2.7,22.7-16,20-29.7L1496.9,70.9z"/>
					</g>
					<g>
						<g>
							<polygon fill="#A0A2A6" points="1460.5,-21.3 1324.2,5.4 1324,4.6 1460.3,-22.1 							"/>
						</g>
						<g>
							<polygon fill="#A0A2A6" points="1463.1,-7.9 1326.8,18.9 1326.6,18.1 1463,-8.7 							"/>
						</g>
						<g>
							
								<rect x="1328.1" y="18.1" transform="matrix(0.9813 -0.1927 0.1927 0.9813 22.6153 269.5944)" fill="#A0A2A6" width="138.9" height="0.8"/>
						</g>
						<g>
							
								<rect x="1330.7" y="31.5" transform="matrix(0.9813 -0.1926 0.1926 0.9813 20.0743 270.337)" fill="#A0A2A6" width="138.9" height="0.8"/>
						</g>
						<g>
							<polygon fill="#A0A2A6" points="1471,32.4 1334.7,59.2 1334.5,58.4 1470.9,31.6 							"/>
						</g>
						<g>
							
								<rect x="1336" y="58.4" transform="matrix(0.9813 -0.1926 0.1926 0.9813 14.9957 271.8425)" fill="#A0A2A6" width="138.9" height="0.8"/>
						</g>
						<g>
							
								<rect x="1338.6" y="71.8" transform="matrix(0.9813 -0.1926 0.1926 0.9813 12.4555 272.5852)" fill="#A0A2A6" width="138.9" height="0.8"/>
						</g>
						<g>
							
								<rect x="1341.2" y="85.3" transform="matrix(0.9813 -0.1926 0.1926 0.9813 9.9197 273.3615)" fill="#A0A2A6" width="138.9" height="0.8"/>
						</g>
						<g>
							
								<rect x="1343.9" y="98.7" transform="matrix(0.9813 -0.1926 0.1926 0.9813 7.3816 274.1178)" fill="#A0A2A6" width="138.9" height="0.8"/>
						</g>
						<g>
							
								<rect x="1346.5" y="112.1" transform="matrix(0.9813 -0.1926 0.1926 0.9813 4.8437 274.8786)" fill="#A0A2A6" width="138.9" height="0.8"/>
						</g>
					</g>
					<g>
						<path fill="#2B3640" d="M1316.4-2.8c0.3,1.8-0.8,3.5-2.6,3.8c-1.8,0.3-3.5-0.8-3.8-2.6c-0.3-1.8,0.8-3.5,2.6-3.8
							C1314.4-5.7,1316.1-4.5,1316.4-2.8z"/>
						<path fill="#2B3640" d="M1320.8,19.6c0.3,1.8-0.8,3.5-2.6,3.8c-1.8,0.3-3.5-0.8-3.8-2.6c-0.3-1.8,0.8-3.5,2.6-3.8
							C1318.8,16.7,1320.5,17.8,1320.8,19.6z"/>
						<path fill="#2B3640" d="M1325.2,42c0.3,1.8-0.8,3.5-2.6,3.8c-1.8,0.3-3.5-0.8-3.8-2.6c-0.3-1.8,0.8-3.5,2.6-3.8
							C1323.2,39.1,1324.9,40.2,1325.2,42z"/>
						<path fill="#2B3640" d="M1329.6,64.4c0.3,1.8-0.8,3.5-2.6,3.8c-1.8,0.3-3.5-0.8-3.8-2.6c-0.3-1.8,0.8-3.5,2.6-3.8
							C1327.6,61.5,1329.3,62.6,1329.6,64.4z"/>
						<path fill="#2B3640" d="M1334,86.8c0.3,1.8-0.8,3.5-2.6,3.8c-1.8,0.3-3.5-0.8-3.8-2.6c-0.3-1.8,0.8-3.5,2.6-3.8
							C1332,83.8,1333.7,85,1334,86.8z"/>
						<path fill="#2B3640" d="M1338.4,109.2c0.3,1.8-0.8,3.5-2.6,3.8c-1.8,0.3-3.5-0.8-3.8-2.6c-0.3-1.8,0.8-3.5,2.6-3.8
							C1336.4,106.2,1338.1,107.4,1338.4,109.2z"/>
						<path fill="#2B3640" d="M1342.8,131.5c0.3,1.8-0.8,3.5-2.6,3.8c-1.8,0.3-3.5-0.8-3.8-2.6c-0.3-1.8,0.8-3.5,2.6-3.8
							C1340.7,128.6,1342.5,129.8,1342.8,131.5z"/>
					</g>
					<g>
						<path fill="#2B3640" d="M1091.5-74.2l7.3-1.4l163.1-32l0,0v0l7.3-1.4l0,0h0l52.5,267.3l-7.3,1.4l-163.1,32l-7.3,1.4
							c-5.8,1.1-11.3-2.6-12.5-8.4l-20-102.1l-8.3-42.2l-20-102.1C1082-67.5,1085.7-73,1091.5-74.2z"/>
						<path fill="#C6C7C7" d="M1135.4,141.8l-14.1-71.9l-1.1-5.8l-1.9-9.9l-1.1-5.8L1103-23.5l-3.1-15.7c-2.7-13.7,6.3-27,20-29.7
							l47.9-9.4l0,0l98.7-19.4l0,0h0l3.1,15.7l19,96.8l1.1,5.8l1.9,9.9l1.1,5.8l19,96.8l3.1,15.7l-146.6,28.7
							c-13.7,2.7-27-6.3-29.7-20L1135.4,141.8z"/>
					</g>
					<g>
						<g>
							
								<rect x="1125" y="-11.8" transform="matrix(0.9813 -0.1926 0.1926 0.9813 24.5599 229.8778)" fill="#A0A2A6" width="138.9" height="0.8"/>
						</g>
						<g>
							
								<rect x="1127.6" y="1.7" transform="matrix(0.9813 -0.1927 0.1927 0.9813 22.025 230.6537)" fill="#A0A2A6" width="138.9" height="0.8"/>
						</g>
						<g>
							
								<rect x="1130.2" y="15.1" transform="matrix(0.9813 -0.1926 0.1926 0.9813 19.4839 231.3969)" fill="#A0A2A6" width="138.9" height="0.8"/>
						</g>
						<g>
							
								<rect x="1132.9" y="28.5" transform="matrix(0.9813 -0.1927 0.1927 0.9813 16.9486 232.1727)" fill="#A0A2A6" width="138.9" height="0.8"/>
						</g>
						<g>
							
								<rect x="1135.5" y="42" transform="matrix(0.9813 -0.1926 0.1926 0.9813 14.4052 232.9)" fill="#A0A2A6" width="138.9" height="0.8"/>
						</g>
						<g>
							
								<rect x="1138.1" y="55.4" transform="matrix(0.9813 -0.1926 0.1926 0.9813 11.8704 233.6772)" fill="#A0A2A6" width="138.9" height="0.8"/>
						</g>
						<g>
							
								<rect x="1140.8" y="68.8" transform="matrix(0.9813 -0.1926 0.1926 0.9813 9.3295 234.4177)" fill="#A0A2A6" width="138.9" height="0.8"/>
						</g>
						<g>
							
								<rect x="1143.4" y="82.3" transform="matrix(0.9813 -0.1926 0.1926 0.9813 6.7921 235.1767)" fill="#A0A2A6" width="138.9" height="0.8"/>
						</g>
						<g>
							
								<rect x="1146" y="95.7" transform="matrix(0.9813 -0.1927 0.1927 0.9813 4.2583 235.973)" fill="#A0A2A6" width="138.9" height="0.8"/>
						</g>
						<g>
							
								<rect x="1148.7" y="109.1" transform="matrix(0.9813 -0.1927 0.1927 0.9813 1.7195 236.7292)" fill="#A0A2A6" width="138.9" height="0.8"/>
						</g>
						<g>
							
								<rect x="1151.3" y="122.5" transform="matrix(0.9813 -0.1927 0.1927 0.9813 -0.8182 237.4895)" fill="#A0A2A6" width="138.9" height="0.8"/>
						</g>
						<g>
							
								<rect x="1154" y="136" transform="matrix(0.9813 -0.1926 0.1926 0.9813 -3.3578 238.233)" fill="#A0A2A6" width="138.9" height="0.8"/>
						</g>
						<g>
							
								<rect x="1156.6" y="149.4" transform="matrix(0.9813 -0.1927 0.1927 0.9813 -5.8948 239.0098)" fill="#A0A2A6" width="138.9" height="0.8"/>
						</g>
					</g>
					<g>
						<path fill="#2B3640" d="M1274.6,5.4c0.3,1.8,2.1,2.9,3.8,2.6c1.8-0.3,2.9-2.1,2.6-3.8c-0.3-1.8-2.1-2.9-3.8-2.6
							C1275.4,2,1274.3,3.7,1274.6,5.4z"/>
						<path fill="#2B3640" d="M1279,27.8c0.3,1.8,2.1,2.9,3.8,2.6c1.8-0.4,2.9-2.1,2.6-3.8c-0.3-1.8-2.1-2.9-3.8-2.6
							C1279.8,24.3,1278.6,26.1,1279,27.8z"/>
						<path fill="#2B3640" d="M1283.4,50.2c0.3,1.8,2.1,2.9,3.8,2.6c1.8-0.3,2.9-2.1,2.6-3.8c-0.3-1.8-2.1-2.9-3.8-2.6
							C1284.2,46.7,1283,48.4,1283.4,50.2z"/>
						<path fill="#2B3640" d="M1287.8,72.6c0.3,1.8,2.1,2.9,3.8,2.6c1.8-0.3,2.9-2.1,2.6-3.8c-0.3-1.8-2.1-2.9-3.8-2.6
							C1288.6,69.1,1287.4,70.8,1287.8,72.6z"/>
						<path fill="#2B3640" d="M1292.2,95c0.3,1.8,2.1,2.9,3.8,2.6c1.8-0.3,2.9-2.1,2.6-3.8c-0.3-1.8-2.1-2.9-3.8-2.6
							C1293,91.5,1291.8,93.2,1292.2,95z"/>
						<path fill="#2B3640" d="M1296.6,117.4c0.3,1.8,2.1,2.9,3.8,2.6c1.8-0.3,2.9-2.1,2.6-3.8c-0.3-1.8-2.1-2.9-3.8-2.6
							C1297.4,113.9,1296.2,115.6,1296.6,117.4z"/>
						<path fill="#2B3640" d="M1301,139.8c0.3,1.8,2.1,2.9,3.8,2.6c1.8-0.3,2.9-2.1,2.6-3.8c-0.3-1.8-2.1-2.9-3.8-2.6
							C1301.8,136.3,1300.6,138,1301,139.8z"/>
					</g>
					
						<rect x="1139.6" y="-81.6" transform="matrix(0.9813 -0.1925 0.1925 0.9813 10.8724 221.0287)" fill="#666666" width="6.5" height="272.4"/>
					<g>
						<path fill="#2B3640" d="M1090.9-77.1l7.3-1.4l163.1-32l0,0l0,0l7.3-1.4h0l0,0l52.5,267.3l-7.3,1.4l-163.1,32l-7.3,1.4
							c-5.8,1.1-11.3-2.6-12.5-8.4l-20.1-102.1l-8.3-42.2l-20.1-102.1C1081.4-70.3,1085.2-75.9,1090.9-77.1z"/>
						<path fill="#C6C7C7" d="M1134.9,138.9L1120.8,67l-1.1-5.8l-1.9-9.9l-1.1-5.8l-14.1-71.9l-3.1-15.7c-2.7-13.7,6.3-27,20-29.7
							l47.9-9.4l0,0l98.7-19.4l0,0l0,0l3.1,15.7l19,96.8l1.1,5.8l1.9,9.9l1.1,5.8l19,96.8l3.1,15.7l-146.6,28.7
							c-13.7,2.7-27-6.3-29.7-20L1134.9,138.9z"/>
					</g>
					<g>
						<g>
							
								<rect x="1125" y="-11.8" transform="matrix(0.9813 -0.1926 0.1926 0.9813 24.5599 229.8778)" fill="#A0A2A6" width="138.9" height="0.8"/>
						</g>
						<g>
							
								<rect x="1127.6" y="1.7" transform="matrix(0.9813 -0.1927 0.1927 0.9813 22.025 230.6537)" fill="#A0A2A6" width="138.9" height="0.8"/>
						</g>
						<g>
							
								<rect x="1130.2" y="15.1" transform="matrix(0.9813 -0.1926 0.1926 0.9813 19.4839 231.3969)" fill="#A0A2A6" width="138.9" height="0.8"/>
						</g>
						<g>
							
								<rect x="1132.9" y="28.5" transform="matrix(0.9813 -0.1927 0.1927 0.9813 16.9486 232.1727)" fill="#A0A2A6" width="138.9" height="0.8"/>
						</g>
						<g>
							
								<rect x="1135.5" y="42" transform="matrix(0.9813 -0.1926 0.1926 0.9813 14.4052 232.9)" fill="#A0A2A6" width="138.9" height="0.8"/>
						</g>
						<g>
							
								<rect x="1138.1" y="55.4" transform="matrix(0.9813 -0.1926 0.1926 0.9813 11.8704 233.6772)" fill="#A0A2A6" width="138.9" height="0.8"/>
						</g>
						<g>
							
								<rect x="1140.8" y="68.8" transform="matrix(0.9813 -0.1926 0.1926 0.9813 9.3295 234.4177)" fill="#A0A2A6" width="138.9" height="0.8"/>
						</g>
						<g>
							
								<rect x="1143.4" y="82.3" transform="matrix(0.9813 -0.1926 0.1926 0.9813 6.7921 235.1767)" fill="#A0A2A6" width="138.9" height="0.8"/>
						</g>
						<g>
							
								<rect x="1146" y="95.7" transform="matrix(0.9813 -0.1927 0.1927 0.9813 4.2583 235.973)" fill="#A0A2A6" width="138.9" height="0.8"/>
						</g>
						<g>
							
								<rect x="1148.7" y="109.1" transform="matrix(0.9813 -0.1927 0.1927 0.9813 1.7195 236.7292)" fill="#A0A2A6" width="138.9" height="0.8"/>
						</g>
						<g>
							
								<rect x="1151.3" y="122.5" transform="matrix(0.9813 -0.1927 0.1927 0.9813 -0.8182 237.4895)" fill="#A0A2A6" width="138.9" height="0.8"/>
						</g>
						<g>
							
								<rect x="1154" y="136" transform="matrix(0.9813 -0.1926 0.1926 0.9813 -3.3578 238.233)" fill="#A0A2A6" width="138.9" height="0.8"/>
						</g>
						<g>
							
								<rect x="1156.6" y="149.4" transform="matrix(0.9813 -0.1927 0.1927 0.9813 -5.8948 239.0098)" fill="#A0A2A6" width="138.9" height="0.8"/>
						</g>
					</g>
					<g>
						<path fill="#2B3640" d="M1274.6,5.4c0.3,1.8,2.1,2.9,3.8,2.6c1.8-0.3,2.9-2.1,2.6-3.8c-0.3-1.8-2.1-2.9-3.8-2.6
							C1275.4,2,1274.3,3.7,1274.6,5.4z"/>
						<path fill="#2B3640" d="M1279,27.8c0.3,1.8,2.1,2.9,3.8,2.6c1.8-0.4,2.9-2.1,2.6-3.8c-0.3-1.8-2.1-2.9-3.8-2.6
							C1279.8,24.3,1278.6,26.1,1279,27.8z"/>
						<path fill="#2B3640" d="M1283.4,50.2c0.3,1.8,2.1,2.9,3.8,2.6c1.8-0.3,2.9-2.1,2.6-3.8c-0.3-1.8-2.1-2.9-3.8-2.6
							C1284.2,46.7,1283,48.4,1283.4,50.2z"/>
						<path fill="#2B3640" d="M1287.8,72.6c0.3,1.8,2.1,2.9,3.8,2.6c1.8-0.3,2.9-2.1,2.6-3.8c-0.3-1.8-2.1-2.9-3.8-2.6
							C1288.6,69.1,1287.4,70.8,1287.8,72.6z"/>
						<path fill="#2B3640" d="M1292.2,95c0.3,1.8,2.1,2.9,3.8,2.6c1.8-0.3,2.9-2.1,2.6-3.8c-0.3-1.8-2.1-2.9-3.8-2.6
							C1293,91.5,1291.8,93.2,1292.2,95z"/>
						<path fill="#2B3640" d="M1296.6,117.4c0.3,1.8,2.1,2.9,3.8,2.6c1.8-0.3,2.9-2.1,2.6-3.8c-0.3-1.8-2.1-2.9-3.8-2.6
							C1297.4,113.9,1296.2,115.6,1296.6,117.4z"/>
						<path fill="#2B3640" d="M1301,139.8c0.3,1.8,2.1,2.9,3.8,2.6c1.8-0.3,2.9-2.1,2.6-3.8c-0.3-1.8-2.1-2.9-3.8-2.6
							C1301.8,136.3,1300.6,138,1301,139.8z"/>
					</g>
					<g>
						<path fill="#666666" d="M1313.5-0.8c-0.1,0-0.2,0-0.4,0c-15.4-1.9-34.6,6.8-34.8,6.9c-0.6,0.3-1.3,0-1.6-0.6
							c-0.3-0.6,0-1.3,0.6-1.6c0.8-0.4,20-9,36.1-7.1c0.7,0.1,1.1,0.7,1.1,1.3C1314.4-1.3,1314-0.9,1313.5-0.8z"/>
					</g>
					<g>
						<path fill="#666666" d="M1317.9,21.7c-0.1,0-0.2,0-0.4,0c-15.4-1.9-34.6,6.8-34.8,6.9c-0.6,0.3-1.3,0-1.6-0.6
							c-0.3-0.6,0-1.3,0.6-1.6c0.8-0.4,20-9,36.1-7.1c0.7,0.1,1.1,0.7,1.1,1.3C1318.8,21.2,1318.4,21.7,1317.9,21.7z"/>
					</g>
					<g>
						<path fill="#666666" d="M1322.3,44c-0.1,0-0.2,0-0.4,0c-15.4-1.9-34.6,6.8-34.8,6.9c-0.6,0.3-1.3,0-1.6-0.6
							c-0.3-0.6,0-1.3,0.6-1.6c0.8-0.4,20-9,36.1-7.1c0.7,0.1,1.1,0.7,1.1,1.3C1323.2,43.5,1322.8,43.9,1322.3,44z"/>
					</g>
					<g>
						<path fill="#666666" d="M1326.7,66.5c-0.1,0-0.2,0-0.4,0c-15.4-1.9-34.6,6.8-34.8,6.9c-0.6,0.3-1.3,0-1.6-0.6
							c-0.3-0.6,0-1.3,0.6-1.6c0.8-0.4,20-9,36.1-7.1c0.7,0.1,1.1,0.7,1.1,1.3C1327.6,66,1327.2,66.4,1326.7,66.5z"/>
					</g>
					<g>
						<path fill="#666666" d="M1331.1,88.7c-0.1,0-0.2,0-0.4,0c-15.4-1.9-34.6,6.8-34.8,6.9c-0.6,0.3-1.3,0-1.6-0.6
							c-0.3-0.6,0-1.3,0.6-1.6c0.8-0.4,20-9,36.1-7.1c0.7,0.1,1.1,0.7,1.1,1.3C1332,88.2,1331.6,88.6,1331.1,88.7z"/>
					</g>
					<g>
						<path fill="#666666" d="M1335.5,111.3c-0.1,0-0.2,0-0.4,0c-15.4-1.9-34.6,6.8-34.8,6.9c-0.6,0.3-1.3,0-1.6-0.6
							c-0.3-0.6,0-1.3,0.6-1.6c0.8-0.4,20-9,36.1-7.1c0.7,0.1,1.1,0.7,1.1,1.3C1336.4,110.8,1336,111.2,1335.5,111.3z"/>
					</g>
					<g>
						<path fill="#666666" d="M1339.9,133.5c-0.1,0-0.2,0-0.4,0c-15.4-1.9-34.6,6.8-34.8,6.9c-0.6,0.3-1.3,0-1.6-0.6
							c-0.3-0.6,0-1.3,0.6-1.6c0.8-0.4,20-9,36.1-7.1c0.7,0.1,1.1,0.7,1.1,1.3C1340.8,133,1340.4,133.4,1339.9,133.5z"/>
					</g>
				</g>
				<g>
					<polygon fill="#F4E1C6" points="1146.3,92 1155.1,76.6 1148.3,74.1 1141.1,74.3 1144.6,91.7 					"/>
					<polygon fill="#2B3640" points="1144.6,91.7 1144.9,95.4 1146.3,92 					"/>
					<path fill="#C38861" d="M1182.6-138.9c-3.9-0.6-7.5,2-8.1,5.9l-33.4,207.3l14,2.3l33.4-207.3
						C1189.1-134.6,1186.5-138.2,1182.6-138.9z"/>
					<polygon fill="#B67247" points="1176,-97.5 1148.1,75.4 1155.1,76.6 1183.1,-97.2 					"/>
				</g>
			</g>
			<g>
				
					<rect x="953.4" y="397.7" transform="matrix(0.2086 -0.978 0.978 0.2086 390.5968 1659.5743)" fill="#D8D8D8" width="534.8" height="381.6"/>
				<polygon fill="#58595B" points="1407.3,472.5 1100.4,407 1100.7,405.5 1407.7,471 				"/>
				<polygon fill="#58595B" points="1404.5,485.9 1097.5,420.4 1097.8,419 1404.8,484.5 				"/>
				<polygon fill="#58595B" points="1401.7,498.9 1094.7,433.4 1095,431.9 1402,497.4 				"/>
				<polygon fill="#58595B" points="1398.8,512.4 1091.9,446.9 1092.2,445.4 1399.1,510.9 				"/>
				
					<rect x="1241.9" y="335.3" transform="matrix(0.2086 -0.978 0.978 0.2086 501.9947 1604.8403)" fill="#58595B" width="1.5" height="313.9"/>
				
					<rect x="1239" y="348.8" transform="matrix(0.2086 -0.978 0.978 0.2086 486.5445 1612.6968)" fill="#58595B" width="1.5" height="313.9"/>
				
					<rect x="1259.3" y="212.3" transform="matrix(0.2086 -0.978 0.978 0.2086 643.0134 1533.1639)" fill="#58595B" width="19.1" height="313.9"/>
			</g>
			<g>
				<path fill="#4D4C4B" d="M1044.9,260l-18.6-8.7c-3.1-1.5-6.7-1.7-10-0.7l-11.5,3.5l-12.9-6l-8.2-3.8l6.2,17.2
					c0,0-5.5,11.7-6.5,17s2.1,13.8,2.1,13.8l15.2,7.1l-0.6,19.7l19.9,9.3l18.4-2.8l6-12.9l8.2,3.8l-6.5-25.9l6.7-8.3l1.4-3.7
					c1.5-4.1,0.5-8.7-2.6-11.8L1044.9,260z"/>
				<path fill="#B0B0B0" d="M1029.7,267.7l-5.9-1l-5.3-2.5l-6.6,1.2l-5.3-5.5l4.3,8.3l7-1.3c0,0,5.1,2,5.8,2.7s3.9,6.4,3.9,6.4
					l-1.8-5.5L1029.7,267.7z"/>
				<polygon fill="#B0B0B0" points="1038.2,301.4 1035.8,313.4 1026,322.1 1010.5,319.4 1025.9,319.2 1033.7,311 1029,303.9 
					1035.2,307.1 				"/>
				<polygon fill="#B0B0B0" points="989.7,278.7 991,284.3 997.2,290.1 988.7,286.1 				"/>
				<polygon fill="#B0B0B0" points="1048.1,280.9 1051,274.7 1049.5,270.4 1048.8,275.6 1045.2,279.5 1044.1,285.7 1046.7,280.2 
									"/>
			</g>
			<g>
				<path fill="#4D4C4B" d="M1071.6,227l14.8-12.1c2.5-2,4.2-4.9,4.7-8.1l1.7-11.1l10.3-8.4l-7.1-0.7l-3.3-6.4
					c0,0-7.6-9.4-11.6-12.3c-4-3-12.5-3.9-12.5-3.9l-12.2,9.9l-16.3-8.5l-15.9,12.9l-5.1,16.6l8.4,10.3l10.5,3.2l7.3,7.2l4.2,9
					l2.5,2.6c2.8,3,7.1,4,10.9,2.6L1071.6,227z"/>
				<path fill="#B0B0B0" d="M1071.3,211.1l3.2-4.6l4.2-3.4l1.7-6l6.7-2.2l-8.7,0.3l-1.7,6.4c0,0-3.8,3.5-4.7,3.8
					c-0.9,0.3-7,0.6-7,0.6l5.3,0.7L1071.3,211.1z"/>
				<polygon fill="#B0B0B0" points="1039.6,204.5 1030.5,197.6 1027.2,186 1035.7,174 1029.7,187.1 1033.3,196.8 1041.2,195.8 
					1036,199.7 				"/>
				<polygon fill="#B0B0B0" points="1078.3,173.1 1073.1,171.9 1065.7,174.8 1072.5,169.3 				"/>
				<polygon fill="#B0B0B0" points="1052.8,221.2 1056.8,226.2 1061,226.6 1056.9,223.9 1055.1,219.3 1050.4,215.9 1053.9,220.2 
									"/>
			</g>
			<g>
				<path fill="#666666" d="M220.9,344.4l101.4,3.1c0,0,29.4,0.4,45.1,13l21.2,15.8c0,0,7.9,6.1,6.1,12.3c0,0-4.5,6.9-15.4-4.9
					l-19.9-18.4c0,0-12.1-9-30.6-10.2c0,0-67.7-6.3-117.3,7.6C211.5,362.8,208,350.2,220.9,344.4z"/>
				<path fill="#666666" d="M376.8,330.7l-99.3,20.7c0,0-28.9,5.5-42.1,20.6l-18.2,19.3c0,0-6.7,7.3-3.8,13.2c0,0,5.6,6,14.3-7.5
					l16.4-21.6c0,0,10.4-11,28.4-15.4c0,0,65.6-17.9,116.8-12.9C389.2,347.3,390.5,334.2,376.8,330.7z"/>
				<path opacity="0.49" fill="#A6A5A5" d="M278.8,351c0,0-6.8-5.3-29.5-2.3c-22.7,3-26.6,7.9-27.3,14.5
					c-0.8,6.7,1.7,31.4,15.7,33.8c0,0,25.7,2.1,35.1-7.7c9.4-9.8,9.5-26.5,9.9-29.7C283,356.3,281.2,352.7,278.8,351z"/>
				<path opacity="0.49" fill="#A6A5A5" d="M319.2,346.3c0,0,5.9-6.7,29.5-8c23.6-1.3,28.4,2.9,30.5,9.5c2,6.6,4.3,32.2-9.5,37.3
					c0,0-25.6,7.1-37-1.1c-11.4-8.1-14.7-25-15.7-28.3C316,352.5,317.1,348.4,319.2,346.3z"/>
				<path fill="#2B3640" d="M391.3,333.3c-0.5-3.8-3.3-3.9-3.3-3.9c-49.3-5.7-70,4.1-76.5,5.5c-6,1.3-12.6,2.1-13.6,2.2
					c-0.9,0.1-7.6,0.6-13.8,0.4c-6.6-0.2-28.8-5.9-76.1,8.8c0,0-2.7,0.6-2.5,4.4l0.9,14.9c0,0,0.9,3.8,3.7,4.4
					c0,0,7.1,24.6,14.7,31.4c7.6,6.8,23.8,5.3,34.4,3.2c0,0,17-4.1,21.6-9.7c4.6-5.6,8.2-13.8,13.5-40.4c0,0,0.4-4.2,4.9-4.7l0,0
					l0,0c4.5-0.3,5.7,3.7,5.7,3.7c10.1,25.2,15.2,32.4,20.8,37.2c5.5,4.7,23,5.6,23,5.6c10.8,0.1,27-1.4,33.2-9.5
					c6.2-8.1,8.6-33.6,8.6-33.6c2.6-1.2,2.8-5,2.8-5L391.3,333.3z M282.7,359.6c-0.3,3.3-0.5,19.9-9.9,29.7
					c-9.4,9.8-35.1,7.7-35.1,7.7c-14-2.4-16.5-27.1-15.7-33.8c0.8-6.7,4.6-11.5,27.3-14.5c22.7-3,29.5,2.3,29.5,2.3
					C281.2,352.7,283,356.3,282.7,359.6z M369.7,385.1c0,0-25.6,7.1-37-1.1c-11.4-8.1-14.7-25-15.7-28.3c-1-3.3,0.1-7.3,2.2-9.5
					c0,0,5.9-6.7,29.5-8c23.6-1.3,28.4,2.9,30.5,9.5C381.2,354.4,383.4,380,369.7,385.1z"/>
			</g>
		</g>
	</g>
</g>
<g id="Layer_3">
</g>
</svg>
