<?xml version="1.0" encoding="UTF-8" standalone="no"?>
<svg
   xmlns:dc="http://purl.org/dc/elements/1.1/"
   xmlns:cc="http://creativecommons.org/ns#"
   xmlns:rdf="http://www.w3.org/1999/02/22-rdf-syntax-ns#"
   xmlns:svg="http://www.w3.org/2000/svg"
   xmlns="http://www.w3.org/2000/svg"
   version="1.1"
   id="svg2"
   xml:space="preserve"
   width="2133.3333"
   height="400"
   viewBox="0 0 2133.3333 400"><metadata
     id="metadata8"><rdf:RDF><cc:Work
         rdf:about=""><dc:format>image/svg+xml</dc:format><dc:type
           rdf:resource="http://purl.org/dc/dcmitype/StillImage" /><dc:title></dc:title></cc:Work></rdf:RDF></metadata><defs
     id="defs6"><clipPath
       clipPathUnits="userSpaceOnUse"
       id="clipPath18"><path
         d="M 0,300 H 1600 V 0 H 0 Z"
         id="path16" /></clipPath><clipPath
       clipPathUnits="userSpaceOnUse"
       id="clipPath26"><path
         d="M 388.286,150 H 1600 V 0 H 388.286 Z"
         id="path24" /></clipPath><clipPath
       clipPathUnits="userSpaceOnUse"
       id="clipPath42"><path
         d="M 518.633,114.844 H 1600 V 1.52545 H 518.633 Z"
         id="path40" /></clipPath></defs><g
     id="g10"
     transform="matrix(-1.3333333,0,0,-1.3333333,2133.3333,400)"><g
       id="g12"><g
         id="g14"
         clip-path="url(#clipPath18)"><g
           id="g20"><g
             id="g22" /><g
             id="g34"><g
               clip-path="url(#clipPath26)"
               id="g32"
               style="opacity:0.44999701"><g
                 transform="translate(388.2856)"
                 id="g30"><path
                   d="M 0,0 C 0,0 49.874,0.225 130.347,1.525 359.645,6.508 845.55,27.462 1211.714,114.844 V 150 C 710.092,7.414 0,0 0,0"
                   style="fill:#ffffff;fill-opacity:1;fill-rule:nonzero;stroke:none"
                   id="path28" /></g></g></g></g><g
           id="g36"><g
             id="g38" /><g
             id="g50"><g
               clip-path="url(#clipPath42)"
               id="g48"
               style="opacity:0.63999897"><g
                 transform="translate(1600,75)"
                 id="g46"><path
                   d="M 0,0 V 39.844 C -366.164,-47.538 -852.07,-68.492 -1081.367,-73.475 -823.775,-69.312 -252.644,-54.125 0,0"
                   style="fill:#ffffff;fill-opacity:1;fill-rule:nonzero;stroke:none"
                   id="path44" /></g></g></g></g><g
           id="g52"
           transform="translate(402.9438)"><path
             d="m 0,0 h -14.658 c 0,0 5.076,-0.02 14.658,0"
             style="fill:#ffffff;fill-opacity:1;fill-rule:nonzero;stroke:none"
             id="path54" /></g><g
           id="g56"
           transform="translate(388.2856)"><path
             d="M 0,0 H 14.658 C 34.878,0.042 75.183,0.259 130.347,1.209 49.874,0.178 0,0 0,0"
             style="fill:#fff498;fill-opacity:1;fill-rule:nonzero;stroke:none"
             id="path58" /></g><g
           id="g60"
           transform="translate(402.9438)"><path
             d="M 0,0 H 1197.056 V 75 C 944.413,20.875 373.281,5.688 115.689,1.525 60.525,0.327 20.22,0.053 0,0"
             style="fill:#ffffff;fill-opacity:1;fill-rule:nonzero;stroke:none"
             id="path62" /></g></g></g></g></svg>